<svg xmlns:xlink="http://www.w3.org/1999/xlink" aria-label="Cohere logo" fill="none" viewBox="0 0 280 48" xmlns="http://www.w3.org/2000/svg" class="geist-hide-on-dark" data-testid="geist-logo" width="280"  height="48" ><path d="M78.8612 47.1289C85.7306 47.1289 91.7758 43.546 94.2488 36.6558C94.7984 35.2778 93.974 34.451 92.6001 34.451H90.1271C89.028 34.451 88.2037 35.0022 87.6541 36.1046C85.4559 40.2387 82.7081 41.6168 79.1359 41.6168C72.816 41.6168 68.6943 37.2071 68.6943 29.7656C68.6943 21.773 72.816 17.3633 78.8612 17.3633C82.7081 17.3633 85.7307 19.0169 87.6541 22.8754C88.2037 23.9779 89.028 24.5291 90.1271 24.5291H92.6001C93.974 24.5291 94.5236 23.7023 94.2488 22.3242C91.501 14.6072 85.1811 11.8511 78.8612 11.8511C69.2439 11.8511 62.0996 19.0169 62.0996 29.49C62.0996 39.9631 68.9691 47.1289 78.8612 47.1289ZM253.621 26.4583C254.445 20.6706 258.292 17.0877 263.513 17.0877C268.734 17.0877 272.856 20.6706 273.13 26.4583H253.621ZM263.788 47.1289C269.833 47.1289 276.153 44.3729 279.175 37.7583C280 36.1046 279.175 35.2778 277.802 35.2778H275.329C274.229 35.2778 273.405 35.829 272.856 36.9314C270.932 40.5143 267.36 41.8924 263.788 41.8924C257.743 41.8924 253.896 37.7583 253.346 30.8681H277.802C279.175 30.8681 280 30.0413 280 28.6632C279.725 18.1901 272.856 11.8511 263.513 11.8511C254.171 11.8511 246.751 18.7413 246.751 29.49C246.751 40.2387 253.896 47.1289 263.788 47.1289ZM225.044 30.3169H227.242C228.616 30.3169 229.44 29.49 229.44 28.112C230.814 19.0169 236.035 17.9145 241.531 18.1901C242.63 18.1901 243.729 17.3633 243.729 15.9853V14.056C243.729 12.678 243.179 11.8511 241.805 11.8511C236.859 11.5755 232.463 13.5048 229.715 18.1901C229.44 18.4657 229.166 18.4657 229.166 18.1901L228.616 14.6072C228.616 13.2292 227.792 12.678 226.418 12.678H216.251C215.152 12.678 214.053 13.5048 214.053 14.8828V15.9853C214.053 17.0877 214.877 18.1901 216.251 18.1901H220.373C221.472 18.1901 222.571 19.0169 222.571 20.395V28.6632C222.846 29.2144 223.67 30.3169 225.044 30.3169ZM215.976 46.3021H236.859C238.233 46.3021 239.058 45.4753 239.058 44.0972V42.9948C239.058 41.6168 238.233 40.79 236.859 40.79H231.639C230.265 40.79 229.44 39.9631 229.44 38.5851V35.0022C229.44 33.6241 228.616 32.7973 227.242 32.7973H225.044C223.67 32.7973 222.846 33.6241 222.846 35.0022V38.5851C222.846 39.9631 222.021 40.79 220.647 40.79H215.976C214.602 40.79 213.778 41.6168 213.778 42.9948V44.0972C213.778 45.4753 214.602 46.3021 215.976 46.3021ZM183.827 26.4583C184.651 20.6706 188.498 17.0877 193.719 17.0877C198.94 17.0877 203.062 20.6706 203.336 26.4583H183.827ZM193.994 47.1289C200.039 47.1289 206.359 44.3729 209.381 37.7583C210.206 36.1046 209.381 35.2778 208.008 35.2778H205.535C204.435 35.2778 203.611 35.829 203.062 36.9314C201.138 40.5143 197.566 41.8924 193.994 41.8924C187.949 41.8924 184.102 37.7583 183.552 30.8681H208.008C209.381 30.8681 210.206 30.0413 210.206 28.6632C209.931 18.1901 203.062 11.8511 193.719 11.8511C184.377 11.8511 176.957 18.7413 176.957 29.49C176.957 40.2387 184.102 47.1289 193.994 47.1289ZM116.781 47.1289C126.673 47.1289 133.817 39.6875 133.817 29.49C133.817 19.2925 126.673 11.8511 116.781 11.8511C106.889 11.8511 99.7444 19.2925 99.7444 29.49C99.7444 31.6949 100.019 34.451 101.393 37.2071C101.943 38.5851 103.042 38.8607 104.416 38.0339L106.339 36.6558C107.438 35.829 107.713 35.0022 107.163 33.8998C106.614 32.2461 106.614 30.8681 106.614 29.49C106.339 22.3242 110.461 17.3633 116.781 17.3633C123.101 17.3633 127.222 22.0486 127.222 29.2144C127.222 36.3802 123.101 41.0656 117.056 41.0656C114.857 41.0656 112.934 40.79 110.461 38.8607C109.362 38.0339 108.537 38.0339 107.438 38.8607L105.79 40.2387C104.69 41.0656 104.416 42.4436 105.515 43.2704C109.087 46.0265 113.209 47.1289 116.781 47.1289ZM142.335 46.3021H144.533C145.633 46.3021 146.732 45.4753 146.732 44.0972V28.112C146.732 21.2218 150.304 17.3633 156.074 17.3633C161.02 17.3633 164.043 20.6706 164.043 26.734V44.0972C164.043 45.1997 164.867 46.3021 166.241 46.3021H168.439C169.538 46.3021 170.638 45.4753 170.638 44.0972V25.6315C170.363 16.8121 165.966 11.8511 157.998 11.8511C152.777 11.8511 149.479 14.056 147.281 17.0877C147.006 17.3633 146.732 17.0877 146.732 16.8121V2.20486C146.732 1.10243 145.633 0 144.533 0H142.335C141.236 0 140.137 0.826823 140.137 2.20486V44.0972C140.137 45.4753 141.236 46.3021 142.335 46.3021Z" fill="black"></path><path d="M15.1129 28.1118C16.4868 28.1118 18.9598 28.1118 22.2571 26.7338C26.3788 25.0801 34.3474 22.0484 40.1178 19.0167C44.2395 16.8119 45.8882 14.0558 45.8882 10.1973C45.8882 4.96075 41.4917 0.551028 36.2709 0.551028H14.0138C6.31993 0.27542 0 6.33879 0 14.0558C0 21.7728 5.77037 28.1118 15.1129 28.1118Z" fill="black" fill-rule="evenodd"></path><path d="M18.959 37.7577C18.959 33.8992 21.1572 30.5919 24.7294 29.2139L31.8736 26.1822C39.0179 23.1505 46.9865 28.387 46.9865 36.104C46.9865 42.1674 42.0405 46.8528 36.2701 46.8528H28.5763C23.0807 47.1284 18.959 42.7186 18.959 37.7577Z" fill="black" fill-rule="evenodd"></path><path d="M7.96861 29.7656C3.57213 29.7656 0 33.3485 0 37.7582V38.8607C0 43.2704 3.57213 46.8533 7.96861 46.8533C12.3651 46.8533 15.9372 43.2704 15.9372 38.8607V37.7582C15.9372 33.6241 12.3651 29.7656 7.96861 29.7656Z" fill="black"></path></svg>