<svg xmlns:xlink="http://www.w3.org/1999/xlink" aria-label="Runway logo" fill="none" viewBox="0 0 300 58" xmlns="http://www.w3.org/2000/svg" class="geist-hide-on-dark" data-testid="geist-logo" width="300"  height="58" ><g clip-path="url(#clip0_540_2619345)" fill="none"><mask height="58" id="mask0_540_2619346" maskUnits="userSpaceOnUse" width="300" x="0" y="0" style="mask-type: luminance;" fill="none"><path d="M0 0H300V57.8126H0V0Z" fill="#FFFFFF"></path></mask><g mask="url(#mask0_540_2619346)" fill="none"><path d="M81.4703 13.1107H89.7234L90.4984 17.3717C92.1125 14.0013 95.5922 12.3482 99.2609 12.3482C101.066 12.3482 102.877 12.7935 104.1 13.306L102.163 23.1576C100.695 22.3023 99.0232 21.8616 97.325 21.8826C93.975 21.8826 91.2625 24.1138 91.2625 29.0701V44.9029H81.4703V13.1107ZM107.495 33.0639V12.9123H117.433V31.2232C117.433 34.9123 119.589 36.8826 122.727 36.8826C125.93 36.8826 128.672 34.467 128.672 29.1264V12.9091H138.609V44.7029H130.309L129.2 40.5107C127.63 43.0514 123.708 45.4654 118.873 45.4654C112.389 45.4654 107.495 41.3904 107.495 33.0685V33.0654V33.0639ZM143.714 13.1107H151.913L153.011 17.3029C154.561 14.7638 158.366 12.3498 163.15 12.3498C169.478 12.3498 174.255 16.3576 174.255 24.6826V44.9029H164.436V26.7185C164.436 22.9701 162.494 20.9342 159.267 20.9342C156.298 20.9342 153.52 23.3482 153.52 28.8139V44.9029H143.702V13.1107H143.714ZM176.517 12.9123H186.336L192.138 34.6014L197.3 20.3357L194.755 12.9091H204.505L210.819 34.5998L216.425 12.9091H226.303L215.847 44.9029H205.773L201.445 32.1717L196.981 44.9029H186.967L176.517 12.9091V12.9123ZM226.872 28.906C226.872 17.9732 234.822 12.3482 242.141 12.3482C246.634 12.3482 249.842 14.1138 251.441 15.9482L252.336 13.106H261.383V44.7076H252.786L251.441 41.617C250.094 43.192 247.211 45.467 241.686 45.467C233.8 45.467 226.872 39.017 226.872 28.9092V28.906ZM251.83 28.906C251.83 23.7888 248.495 20.6326 244.256 20.6326C239.959 20.6326 236.684 23.8576 236.684 28.906C236.684 33.956 239.959 37.1904 244.256 37.1904C248.495 37.1826 251.83 34.0217 251.83 28.906ZM271.655 57.8123L277.094 43.2529L264.209 12.9123H274.764L281.953 32.731L288.425 12.9091H298.722L281.695 57.8123H271.655ZM44.6734 57.7764C37.6141 58.4186 31.7094 50.2092 27.1859 46.0467C24.8984 62.4061 -0.0171786 60.853 8.88813e-06 44.2607C0.00938389 37.292 8.88813e-06 20.2607 8.88813e-06 13.5107C0.00102477 11.0637 0.66868 8.66312 1.93126 6.56695C4.32188 2.5482 8.93907 -0.0471187 13.6453 0.00288133C20.7281 0.0106938 37.7906 -0.00649368 44.6734 0.00288133C61.4141 0.00288133 63.0047 24.7123 46.4594 26.9342L54.3109 34.7139C62.9359 42.7607 56.4625 58.1311 44.6734 57.7764ZM40.8719 48.0451C45.7359 53.017 53.5031 45.3139 48.4922 40.4951L34.8828 27.0107H27.2703V34.5607L39.0328 46.217L40.8719 48.0451ZM8.24532 44.2701C8.13595 51.1795 19.1328 51.2045 19.0203 44.2701V13.5107C19.1141 10.0638 15.4375 7.3232 12.1203 8.38727C10.9912 8.71942 10.0007 9.40989 9.29845 10.3545C8.59901 11.2954 8.22792 12.4399 8.2422 13.6123V44.2686L8.24532 44.2701ZM44.6719 18.8435C51.6656 18.9529 51.6547 8.05758 44.6719 8.16695H26.1906C27.5938 11.0998 27.2375 15.6654 27.2609 18.842H44.6766H44.6734L44.6719 18.8435Z" fill="black"></path></g></g><defs><clipPath id="clip0_540_2619345"><rect fill="white" height="57.8126" width="300"></rect></clipPath></defs></svg>