<svg xmlns:xlink="http://www.w3.org/1999/xlink" aria-label="Anthropic logo" fill="none" viewBox="0 0 330 38" xmlns="http://www.w3.org/2000/svg" class="geist-hide-on-dark" data-testid="geist-logo" width="330"  height="38" ><g clip-path="url(#clip0_1636_153846)" fill="none"><path d="M67.1773 25.5717L51.1552 0.562012H42.4414V36.531H49.7498V11.2403L65.7719 36.25H74.4857V0.562012H67.1773V25.5717Z" fill="black"></path><path d="M80.6709 7.5872H92.7578V36.531H100.347V7.5872H112.434V0.562012H80.6709V7.5872Z" fill="black"></path><path d="M143.073 14.8934H126.208V0.562012H118.618V36.531H126.208V21.9186H143.073V36.531H150.662V0.562012H143.073V14.8934Z" fill="black"></path><path d="M168.089 7.5872H177.646C181.301 7.5872 183.549 8.99224 183.549 11.5213C183.549 14.0504 181.582 15.4554 177.646 15.4554H168.089V7.5872ZM190.858 11.5213C190.858 4.77713 185.798 0.562012 177.646 0.562012H160.219V36.531H167.808V22.4806H176.241L183.83 36.531H192.263L183.83 21.3566C188.328 19.6705 190.858 16.2984 190.858 11.5213Z" fill="black"></path><path d="M214.47 29.7868C208.568 29.7868 204.632 25.5717 204.632 18.5465C204.632 11.5213 208.286 7.02519 214.47 7.02519C220.373 7.02519 224.027 11.2403 224.027 18.5465C224.027 25.5717 220.373 29.7868 214.47 29.7868ZM214.47 0C204.07 0 196.762 7.58721 196.762 18.5465C196.762 29.2248 204.07 37.093 214.47 37.093C224.871 37.093 231.898 29.5058 231.898 18.5465C231.898 7.58721 224.59 0 214.47 0Z" fill="black"></path><path d="M256.352 16.5794H246.795V7.5872H256.352C260.006 7.5872 262.255 8.99224 262.255 12.0833C261.974 14.8934 260.006 16.5794 256.352 16.5794ZM256.633 0.562012H239.206V36.531H246.795V23.3236H256.633C264.785 23.3236 269.844 19.1085 269.844 11.8023C269.844 4.49612 264.785 0.562012 256.633 0.562012Z" fill="black"></path><path d="M321.565 24.4482C320.159 27.8203 317.629 29.7873 313.975 29.7873C308.072 29.7873 304.137 25.5722 304.137 18.547C304.137 11.5218 307.791 7.02568 313.975 7.02568C317.629 7.02568 320.159 8.99274 321.565 12.3648H329.716C327.749 4.77762 321.846 -0.280518 313.975 -0.280518C303.575 -0.280518 296.267 7.30669 296.267 18.266C296.267 28.9443 303.575 36.8125 313.975 36.8125C321.846 36.8125 327.749 31.7544 329.716 24.1672H321.565V24.4482Z" fill="black"></path><path d="M272.656 0.562012L286.992 36.25H294.862L280.527 0.562012H272.656Z" fill="black"></path><path d="M13.4918 22.1996L18.2704 9.55426L23.0489 22.1996H13.4918ZM14.3351 0.562012L-0.000488281 36.531H7.87004L10.6809 28.9438H25.5787L28.3896 36.531H36.2601L22.4867 0.562012H14.3351Z" fill="black"></path></g><defs><clipPath id="clip0_1636_153846"><rect fill="white" height="37.093" width="330"></rect></clipPath></defs></svg>