<svg xmlns:xlink="http://www.w3.org/1999/xlink" xmlns="http://www.w3.org/2000/svg" class="deploy-visual_grid___kxqD" fill="none" height="144" viewBox="0 0 312 144" width="312"><mask fill="#FFFFFF" id="path-2-inside-1_1086_110200"><path d="M0 0H26V26H0V0Z" fill="#FFFFFF"></path></mask><path d="M26 26V27H27V26H26ZM25 0V26H27V0H25ZM26 25H0V27H26V25Z" fill="#F2F2F2" mask="url(#path-2-inside-1_1086_110200)"></path><mask fill="#FFFFFF" id="path-4-inside-2_1086_110200"><path d="M26 0H52V26H26V0Z" fill="#FFFFFF"></path></mask><path d="M52 26V27H53V26H52ZM51 0V26H53V0H51ZM52 25H26V27H52V25Z" fill="#F2F2F2" mask="url(#path-4-inside-2_1086_110200)"></path><mask fill="#FFFFFF" id="path-6-inside-3_1086_110200"><path d="M52 0H78V26H52V0Z" fill="#FFFFFF"></path></mask><path d="M78 26V27H79V26H78ZM77 0V26H79V0H77ZM78 25H52V27H78V25Z" fill="#F2F2F2" mask="url(#path-6-inside-3_1086_110200)"></path><mask fill="#FFFFFF" id="path-8-inside-4_1086_110200"><path d="M78 0H104V26H78V0Z" fill="#FFFFFF"></path></mask><path d="M104 26V27H105V26H104ZM103 0V26H105V0H103ZM104 25H78V27H104V25Z" fill="#F2F2F2" mask="url(#path-8-inside-4_1086_110200)"></path><mask fill="#FFFFFF" id="path-10-inside-5_1086_110200"><path d="M104 0H130V26H104V0Z" fill="#FFFFFF"></path></mask><path d="M130 26V27H131V26H130ZM129 0V26H131V0H129ZM130 25H104V27H130V25Z" fill="#F2F2F2" mask="url(#path-10-inside-5_1086_110200)"></path><mask fill="#FFFFFF" id="path-12-inside-6_1086_110200"><path d="M130 0H156V26H130V0Z" fill="#FFFFFF"></path></mask><path d="M156 26V27H157V26H156ZM155 0V26H157V0H155ZM156 25H130V27H156V25Z" fill="#F2F2F2" mask="url(#path-12-inside-6_1086_110200)"></path><mask fill="#FFFFFF" id="path-14-inside-7_1086_110200"><path d="M156 0H182V26H156V0Z" fill="#FFFFFF"></path></mask><path d="M182 26V27H183V26H182ZM181 0V26H183V0H181ZM182 25H156V27H182V25Z" fill="#F2F2F2" mask="url(#path-14-inside-7_1086_110200)"></path><mask fill="#FFFFFF" id="path-16-inside-8_1086_110200"><path d="M182 0H208V26H182V0Z" fill="#FFFFFF"></path></mask><path d="M208 26V27H209V26H208ZM207 0V26H209V0H207ZM208 25H182V27H208V25Z" fill="#F2F2F2" mask="url(#path-16-inside-8_1086_110200)"></path><mask fill="#FFFFFF" id="path-18-inside-9_1086_110200"><path d="M208 0H234V26H208V0Z" fill="#FFFFFF"></path></mask><path d="M234 26V27H235V26H234ZM233 0V26H235V0H233ZM234 25H208V27H234V25Z" fill="#F2F2F2" mask="url(#path-18-inside-9_1086_110200)"></path><mask fill="#FFFFFF" id="path-20-inside-10_1086_110200"><path d="M234 0H260V26H234V0Z" fill="#FFFFFF"></path></mask><path d="M260 26V27H261V26H260ZM259 0V26H261V0H259ZM260 25H234V27H260V25Z" fill="#F2F2F2" mask="url(#path-20-inside-10_1086_110200)"></path><mask fill="#FFFFFF" id="path-22-inside-11_1086_110200"><path d="M260 0H286V26H260V0Z" fill="#FFFFFF"></path></mask><path d="M286 26V27H287V26H286ZM285 0V26H287V0H285ZM286 25H260V27H286V25Z" fill="#F2F2F2" mask="url(#path-22-inside-11_1086_110200)"></path><mask fill="#FFFFFF" id="path-24-inside-12_1086_110200"><path d="M286 0H312V26H286V0Z" fill="#FFFFFF"></path></mask><path d="M312 26V27H313V26H312ZM311 0V26H313V0H311ZM312 25H286V27H312V25Z" fill="#F2F2F2" mask="url(#path-24-inside-12_1086_110200)"></path><mask fill="#FFFFFF" id="path-26-inside-13_1086_110200"><path d="M0 26H26V52H0V26Z" fill="#FFFFFF"></path></mask><path d="M26 52V53H27V52H26ZM25 26V52H27V26H25ZM26 51H0V53H26V51Z" fill="#F2F2F2" mask="url(#path-26-inside-13_1086_110200)"></path><mask fill="#FFFFFF" id="path-28-inside-14_1086_110200"><path d="M26 26H52V52H26V26Z" fill="#FFFFFF"></path></mask><path d="M52 52V53H53V52H52ZM51 26V52H53V26H51ZM52 51H26V53H52V51Z" fill="#F2F2F2" mask="url(#path-28-inside-14_1086_110200)"></path><mask fill="#FFFFFF" id="path-30-inside-15_1086_110200"><path d="M52 26H78V52H52V26Z" fill="#FFFFFF"></path></mask><path d="M78 52V53H79V52H78ZM77 26V52H79V26H77ZM78 51H52V53H78V51Z" fill="#F2F2F2" mask="url(#path-30-inside-15_1086_110200)"></path><mask fill="#FFFFFF" id="path-32-inside-16_1086_110200"><path d="M78 26H104V52H78V26Z" fill="#FFFFFF"></path></mask><path d="M104 52V53H105V52H104ZM103 26V52H105V26H103ZM104 51H78V53H104V51Z" fill="#F2F2F2" mask="url(#path-32-inside-16_1086_110200)"></path><mask fill="#FFFFFF" id="path-34-inside-17_1086_110200"><path d="M104 26H130V52H104V26Z" fill="#FFFFFF"></path></mask><path d="M130 52V53H131V52H130ZM129 26V52H131V26H129ZM130 51H104V53H130V51Z" fill="#F2F2F2" mask="url(#path-34-inside-17_1086_110200)"></path><mask fill="#FFFFFF" id="path-36-inside-18_1086_110200"><path d="M130 26H156V52H130V26Z" fill="#FFFFFF"></path></mask><path d="M156 52V53H157V52H156ZM155 26V52H157V26H155ZM156 51H130V53H156V51Z" fill="#F2F2F2" mask="url(#path-36-inside-18_1086_110200)"></path><mask fill="#FFFFFF" id="path-38-inside-19_1086_110200"><path d="M156 26H182V52H156V26Z" fill="#FFFFFF"></path></mask><path d="M182 52V53H183V52H182ZM181 26V52H183V26H181ZM182 51H156V53H182V51Z" fill="#F2F2F2" mask="url(#path-38-inside-19_1086_110200)"></path><mask fill="#FFFFFF" id="path-40-inside-20_1086_110200"><path d="M182 26H208V52H182V26Z" fill="#FFFFFF"></path></mask><path d="M208 52V53H209V52H208ZM207 26V52H209V26H207ZM208 51H182V53H208V51Z" fill="#F2F2F2" mask="url(#path-40-inside-20_1086_110200)"></path><mask fill="#FFFFFF" id="path-42-inside-21_1086_110200"><path d="M208 26H234V52H208V26Z" fill="#FFFFFF"></path></mask><path d="M234 52V53H235V52H234ZM233 26V52H235V26H233ZM234 51H208V53H234V51Z" fill="#F2F2F2" mask="url(#path-42-inside-21_1086_110200)"></path><mask fill="#FFFFFF" id="path-44-inside-22_1086_110200"><path d="M234 26H260V52H234V26Z" fill="#FFFFFF"></path></mask><path d="M260 52V53H261V52H260ZM259 26V52H261V26H259ZM260 51H234V53H260V51Z" fill="#F2F2F2" mask="url(#path-44-inside-22_1086_110200)"></path><mask fill="#FFFFFF" id="path-46-inside-23_1086_110200"><path d="M260 26H286V52H260V26Z" fill="#FFFFFF"></path></mask><path d="M286 52V53H287V52H286ZM285 26V52H287V26H285ZM286 51H260V53H286V51Z" fill="#F2F2F2" mask="url(#path-46-inside-23_1086_110200)"></path><mask fill="#FFFFFF" id="path-48-inside-24_1086_110200"><path d="M286 26H312V52H286V26Z" fill="#FFFFFF"></path></mask><path d="M312 52V53H313V52H312ZM311 26V52H313V26H311ZM312 51H286V53H312V51Z" fill="#F2F2F2" mask="url(#path-48-inside-24_1086_110200)"></path><mask fill="#FFFFFF" id="path-50-inside-25_1086_110200"><path d="M0 52H26V78H0V52Z" fill="#FFFFFF"></path></mask><path d="M26 78V79H27V78H26ZM25 52V78H27V52H25ZM26 77H0V79H26V77Z" fill="#F2F2F2" mask="url(#path-50-inside-25_1086_110200)"></path><mask fill="#FFFFFF" id="path-52-inside-26_1086_110200"><path d="M26 52H52V78H26V52Z" fill="#FFFFFF"></path></mask><path d="M52 78V79H53V78H52ZM51 52V78H53V52H51ZM52 77H26V79H52V77Z" fill="#F2F2F2" mask="url(#path-52-inside-26_1086_110200)"></path><mask fill="#FFFFFF" id="path-54-inside-27_1086_110200"><path d="M52 52H78V78H52V52Z" fill="#FFFFFF"></path></mask><path d="M78 78V79H79V78H78ZM77 52V78H79V52H77ZM78 77H52V79H78V77Z" fill="#F2F2F2" mask="url(#path-54-inside-27_1086_110200)"></path><mask fill="#FFFFFF" id="path-56-inside-28_1086_110200"><path d="M78 52H104V78H78V52Z" fill="#FFFFFF"></path></mask><path d="M104 78V79H105V78H104ZM103 52V78H105V52H103ZM104 77H78V79H104V77Z" fill="#F2F2F2" mask="url(#path-56-inside-28_1086_110200)"></path><mask fill="#FFFFFF" id="path-58-inside-29_1086_110200"><path d="M104 52H130V78H104V52Z" fill="#FFFFFF"></path></mask><path d="M130 78V79H131V78H130ZM129 52V78H131V52H129ZM130 77H104V79H130V77Z" fill="#F2F2F2" mask="url(#path-58-inside-29_1086_110200)"></path><mask fill="#FFFFFF" id="path-60-inside-30_1086_110200"><path d="M130 52H156V78H130V52Z" fill="#FFFFFF"></path></mask><path d="M156 78V79H157V78H156ZM155 52V78H157V52H155ZM156 77H130V79H156V77Z" fill="#F2F2F2" mask="url(#path-60-inside-30_1086_110200)"></path><mask fill="#FFFFFF" id="path-62-inside-31_1086_110200"><path d="M156 52H182V78H156V52Z" fill="#FFFFFF"></path></mask><path d="M182 78V79H183V78H182ZM181 52V78H183V52H181ZM182 77H156V79H182V77Z" fill="#F2F2F2" mask="url(#path-62-inside-31_1086_110200)"></path><mask fill="#FFFFFF" id="path-64-inside-32_1086_110200"><path d="M182 52H208V78H182V52Z" fill="#FFFFFF"></path></mask><path d="M208 78V79H209V78H208ZM207 52V78H209V52H207ZM208 77H182V79H208V77Z" fill="#F2F2F2" mask="url(#path-64-inside-32_1086_110200)"></path><mask fill="#FFFFFF" id="path-66-inside-33_1086_110200"><path d="M208 52H234V78H208V52Z" fill="#FFFFFF"></path></mask><path d="M234 78V79H235V78H234ZM233 52V78H235V52H233ZM234 77H208V79H234V77Z" fill="#F2F2F2" mask="url(#path-66-inside-33_1086_110200)"></path><mask fill="#FFFFFF" id="path-68-inside-34_1086_110200"><path d="M234 52H260V78H234V52Z" fill="#FFFFFF"></path></mask><path d="M260 78V79H261V78H260ZM259 52V78H261V52H259ZM260 77H234V79H260V77Z" fill="#F2F2F2" mask="url(#path-68-inside-34_1086_110200)"></path><mask fill="#FFFFFF" id="path-70-inside-35_1086_110200"><path d="M260 52H286V78H260V52Z" fill="#FFFFFF"></path></mask><path d="M286 78V79H287V78H286ZM285 52V78H287V52H285ZM286 77H260V79H286V77Z" fill="#F2F2F2" mask="url(#path-70-inside-35_1086_110200)"></path><mask fill="#FFFFFF" id="path-72-inside-36_1086_110200"><path d="M286 52H312V78H286V52Z" fill="#FFFFFF"></path></mask><path d="M312 78V79H313V78H312ZM311 52V78H313V52H311ZM312 77H286V79H312V77Z" fill="#F2F2F2" mask="url(#path-72-inside-36_1086_110200)"></path><mask fill="#FFFFFF" id="path-74-inside-37_1086_110200"><path d="M0 78H26V104H0V78Z" fill="#FFFFFF"></path></mask><path d="M26 104V105H27V104H26ZM25 78V104H27V78H25ZM26 103H0V105H26V103Z" fill="#F2F2F2" mask="url(#path-74-inside-37_1086_110200)"></path><mask fill="#FFFFFF" id="path-76-inside-38_1086_110200"><path d="M26 78H52V104H26V78Z" fill="#FFFFFF"></path></mask><path d="M52 104V105H53V104H52ZM51 78V104H53V78H51ZM52 103H26V105H52V103Z" fill="#F2F2F2" mask="url(#path-76-inside-38_1086_110200)"></path><mask fill="#FFFFFF" id="path-78-inside-39_1086_110200"><path d="M52 78H78V104H52V78Z" fill="#FFFFFF"></path></mask><path d="M78 104V105H79V104H78ZM77 78V104H79V78H77ZM78 103H52V105H78V103Z" fill="#F2F2F2" mask="url(#path-78-inside-39_1086_110200)"></path><mask fill="#FFFFFF" id="path-80-inside-40_1086_110200"><path d="M78 78H104V104H78V78Z" fill="#FFFFFF"></path></mask><path d="M104 104V105H105V104H104ZM103 78V104H105V78H103ZM104 103H78V105H104V103Z" fill="#F2F2F2" mask="url(#path-80-inside-40_1086_110200)"></path><mask fill="#FFFFFF" id="path-82-inside-41_1086_110200"><path d="M104 78H130V104H104V78Z" fill="#FFFFFF"></path></mask><path d="M130 104V105H131V104H130ZM129 78V104H131V78H129ZM130 103H104V105H130V103Z" fill="#F2F2F2" mask="url(#path-82-inside-41_1086_110200)"></path><mask fill="#FFFFFF" id="path-84-inside-42_1086_110200"><path d="M130 78H156V104H130V78Z" fill="#FFFFFF"></path></mask><path d="M156 104V105H157V104H156ZM155 78V104H157V78H155ZM156 103H130V105H156V103Z" fill="#F2F2F2" mask="url(#path-84-inside-42_1086_110200)"></path><mask fill="#FFFFFF" id="path-86-inside-43_1086_110200"><path d="M156 78H182V104H156V78Z" fill="#FFFFFF"></path></mask><path d="M182 104V105H183V104H182ZM181 78V104H183V78H181ZM182 103H156V105H182V103Z" fill="#F2F2F2" mask="url(#path-86-inside-43_1086_110200)"></path><mask fill="#FFFFFF" id="path-88-inside-44_1086_110200"><path d="M182 78H208V104H182V78Z" fill="#FFFFFF"></path></mask><path d="M208 104V105H209V104H208ZM207 78V104H209V78H207ZM208 103H182V105H208V103Z" fill="#F2F2F2" mask="url(#path-88-inside-44_1086_110200)"></path><mask fill="#FFFFFF" id="path-90-inside-45_1086_110200"><path d="M208 78H234V104H208V78Z" fill="#FFFFFF"></path></mask><path d="M234 104V105H235V104H234ZM233 78V104H235V78H233ZM234 103H208V105H234V103Z" fill="#F2F2F2" mask="url(#path-90-inside-45_1086_110200)"></path><mask fill="#FFFFFF" id="path-92-inside-46_1086_110200"><path d="M234 78H260V104H234V78Z" fill="#FFFFFF"></path></mask><path d="M260 104V105H261V104H260ZM259 78V104H261V78H259ZM260 103H234V105H260V103Z" fill="#F2F2F2" mask="url(#path-92-inside-46_1086_110200)"></path><mask fill="#FFFFFF" id="path-94-inside-47_1086_110200"><path d="M260 78H286V104H260V78Z" fill="#FFFFFF"></path></mask><path d="M286 104V105H287V104H286ZM285 78V104H287V78H285ZM286 103H260V105H286V103Z" fill="#F2F2F2" mask="url(#path-94-inside-47_1086_110200)"></path><mask fill="#FFFFFF" id="path-96-inside-48_1086_110200"><path d="M286 78H312V104H286V78Z" fill="#FFFFFF"></path></mask><path d="M312 104V105H313V104H312ZM311 78V104H313V78H311ZM312 103H286V105H312V103Z" fill="#F2F2F2" mask="url(#path-96-inside-48_1086_110200)"></path><mask fill="#FFFFFF" id="path-98-inside-49_1086_110200"><path d="M0 104H26V130H0V104Z" fill="#FFFFFF"></path></mask><path d="M26 130V131H27V130H26ZM25 104V130H27V104H25ZM26 129H0V131H26V129Z" fill="#F2F2F2" mask="url(#path-98-inside-49_1086_110200)"></path><mask fill="#FFFFFF" id="path-100-inside-50_1086_110200"><path d="M26 104H52V130H26V104Z" fill="#FFFFFF"></path></mask><path d="M52 130V131H53V130H52ZM51 104V130H53V104H51ZM52 129H26V131H52V129Z" fill="#F2F2F2" mask="url(#path-100-inside-50_1086_110200)"></path><mask fill="#FFFFFF" id="path-102-inside-51_1086_110200"><path d="M52 104H78V130H52V104Z" fill="#FFFFFF"></path></mask><path d="M78 130V131H79V130H78ZM77 104V130H79V104H77ZM78 129H52V131H78V129Z" fill="#F2F2F2" mask="url(#path-102-inside-51_1086_110200)"></path><mask fill="#FFFFFF" id="path-104-inside-52_1086_110200"><path d="M78 104H104V130H78V104Z" fill="#FFFFFF"></path></mask><path d="M104 130V131H105V130H104ZM103 104V130H105V104H103ZM104 129H78V131H104V129Z" fill="#F2F2F2" mask="url(#path-104-inside-52_1086_110200)"></path><mask fill="#FFFFFF" id="path-106-inside-53_1086_110200"><path d="M104 104H130V130H104V104Z" fill="#FFFFFF"></path></mask><path d="M130 130V131H131V130H130ZM129 104V130H131V104H129ZM130 129H104V131H130V129Z" fill="#F2F2F2" mask="url(#path-106-inside-53_1086_110200)"></path><mask fill="#FFFFFF" id="path-108-inside-54_1086_110200"><path d="M130 104H156V130H130V104Z" fill="#FFFFFF"></path></mask><path d="M156 130V131H157V130H156ZM155 104V130H157V104H155ZM156 129H130V131H156V129Z" fill="#F2F2F2" mask="url(#path-108-inside-54_1086_110200)"></path><mask fill="#FFFFFF" id="path-110-inside-55_1086_110200"><path d="M156 104H182V130H156V104Z" fill="#FFFFFF"></path></mask><path d="M182 130V131H183V130H182ZM181 104V130H183V104H181ZM182 129H156V131H182V129Z" fill="#F2F2F2" mask="url(#path-110-inside-55_1086_110200)"></path><mask fill="#FFFFFF" id="path-112-inside-56_1086_110200"><path d="M182 104H208V130H182V104Z" fill="#FFFFFF"></path></mask><path d="M208 130V131H209V130H208ZM207 104V130H209V104H207ZM208 129H182V131H208V129Z" fill="#F2F2F2" mask="url(#path-112-inside-56_1086_110200)"></path><mask fill="#FFFFFF" id="path-114-inside-57_1086_110200"><path d="M208 104H234V130H208V104Z" fill="#FFFFFF"></path></mask><path d="M234 130V131H235V130H234ZM233 104V130H235V104H233ZM234 129H208V131H234V129Z" fill="#F2F2F2" mask="url(#path-114-inside-57_1086_110200)"></path><mask fill="#FFFFFF" id="path-116-inside-58_1086_110200"><path d="M234 104H260V130H234V104Z" fill="#FFFFFF"></path></mask><path d="M260 130V131H261V130H260ZM259 104V130H261V104H259ZM260 129H234V131H260V129Z" fill="#F2F2F2" mask="url(#path-116-inside-58_1086_110200)"></path><mask fill="#FFFFFF" id="path-118-inside-59_1086_110200"><path d="M260 104H286V130H260V104Z" fill="#FFFFFF"></path></mask><path d="M286 130V131H287V130H286ZM285 104V130H287V104H285ZM286 129H260V131H286V129Z" fill="#F2F2F2" mask="url(#path-118-inside-59_1086_110200)"></path><mask fill="#FFFFFF" id="path-120-inside-60_1086_110200"><path d="M286 104H312V130H286V104Z" fill="#FFFFFF"></path></mask><path d="M312 130V131H313V130H312ZM311 104V130H313V104H311ZM312 129H286V131H312V129Z" fill="#F2F2F2" mask="url(#path-120-inside-60_1086_110200)"></path><mask fill="#FFFFFF" id="path-122-inside-61_1086_110200"><path d="M0 130H26V156H0V130Z" fill="#FFFFFF"></path></mask><path d="M26 156V157H27V156H26ZM25 130V156H27V130H25ZM26 155H0V157H26V155Z" fill="#F2F2F2" mask="url(#path-122-inside-61_1086_110200)"></path><mask fill="#FFFFFF" id="path-124-inside-62_1086_110200"><path d="M26 130H52V156H26V130Z" fill="#FFFFFF"></path></mask><path d="M52 156V157H53V156H52ZM51 130V156H53V130H51ZM52 155H26V157H52V155Z" fill="#F2F2F2" mask="url(#path-124-inside-62_1086_110200)"></path><mask fill="#FFFFFF" id="path-126-inside-63_1086_110200"><path d="M52 130H78V156H52V130Z" fill="#FFFFFF"></path></mask><path d="M78 156V157H79V156H78ZM77 130V156H79V130H77ZM78 155H52V157H78V155Z" fill="#F2F2F2" mask="url(#path-126-inside-63_1086_110200)"></path><mask fill="#FFFFFF" id="path-128-inside-64_1086_110200"><path d="M78 130H104V156H78V130Z" fill="#FFFFFF"></path></mask><path d="M104 156V157H105V156H104ZM103 130V156H105V130H103ZM104 155H78V157H104V155Z" fill="#F2F2F2" mask="url(#path-128-inside-64_1086_110200)"></path><mask fill="#FFFFFF" id="path-130-inside-65_1086_110200"><path d="M104 130H130V156H104V130Z" fill="#FFFFFF"></path></mask><path d="M130 156V157H131V156H130ZM129 130V156H131V130H129ZM130 155H104V157H130V155Z" fill="#F2F2F2" mask="url(#path-130-inside-65_1086_110200)"></path><mask fill="#FFFFFF" id="path-132-inside-66_1086_110200"><path d="M130 130H156V156H130V130Z" fill="#FFFFFF"></path></mask><path d="M156 156V157H157V156H156ZM155 130V156H157V130H155ZM156 155H130V157H156V155Z" fill="#F2F2F2" mask="url(#path-132-inside-66_1086_110200)"></path><mask fill="#FFFFFF" id="path-134-inside-67_1086_110200"><path d="M156 130H182V156H156V130Z" fill="#FFFFFF"></path></mask><path d="M182 156V157H183V156H182ZM181 130V156H183V130H181ZM182 155H156V157H182V155Z" fill="#F2F2F2" mask="url(#path-134-inside-67_1086_110200)"></path><mask fill="#FFFFFF" id="path-136-inside-68_1086_110200"><path d="M182 130H208V156H182V130Z" fill="#FFFFFF"></path></mask><path d="M208 156V157H209V156H208ZM207 130V156H209V130H207ZM208 155H182V157H208V155Z" fill="#F2F2F2" mask="url(#path-136-inside-68_1086_110200)"></path><mask fill="#FFFFFF" id="path-138-inside-69_1086_110200"><path d="M208 130H234V156H208V130Z" fill="#FFFFFF"></path></mask><path d="M234 156V157H235V156H234ZM233 130V156H235V130H233ZM234 155H208V157H234V155Z" fill="#F2F2F2" mask="url(#path-138-inside-69_1086_110200)"></path><mask fill="#FFFFFF" id="path-140-inside-70_1086_110200"><path d="M234 130H260V156H234V130Z" fill="#FFFFFF"></path></mask><path d="M260 156V157H261V156H260ZM259 130V156H261V130H259ZM260 155H234V157H260V155Z" fill="#F2F2F2" mask="url(#path-140-inside-70_1086_110200)"></path><mask fill="#FFFFFF" id="path-142-inside-71_1086_110200"><path d="M260 130H286V156H260V130Z" fill="#FFFFFF"></path></mask><path d="M286 156V157H287V156H286ZM285 130V156H287V130H285ZM286 155H260V157H286V155Z" fill="#F2F2F2" mask="url(#path-142-inside-71_1086_110200)"></path><mask fill="#FFFFFF" id="path-144-inside-72_1086_110200"><path d="M286 130H312V156H286V130Z" fill="#FFFFFF"></path></mask><path d="M312 156V157H313V156H312ZM311 130V156H313V130H311ZM312 155H286V157H312V155Z" fill="#F2F2F2" mask="url(#path-144-inside-72_1086_110200)"></path><rect height="181" stroke="#F2F2F2" width="311" x="0.5" y="0.5" fill="none"></rect><g filter="url(#filter0_d_1086_110200)" fill="none"><path d="M9.92458 25.02H14.9786L19.9566 45.388L24.9726 25.02H29.4946L34.5486 45.388L39.4886 25.02H44.5806L37.3986 52H32.0406L27.2526 33.76L22.5026 52H17.1446L9.92458 25.02ZM44.5049 25.02H49.2169V34.52C50.3949 32.316 52.6369 31.404 55.0689 31.404C59.5149 31.404 61.8329 34.71 61.8329 39.042V52H57.1209V40.676C57.1209 37.294 56.2089 35.432 53.5869 35.432C50.8509 35.432 49.2169 37.294 49.2169 40.676V52H44.5049V25.02ZM62.6151 37.978C63.4131 33.836 66.6431 31.404 71.5071 31.404C77.2831 31.404 80.3231 34.406 80.3231 40.03V47.06C80.3231 48.2 80.7791 48.504 81.5771 48.504H82.3371V52L81.1591 52.038C79.5251 52.038 76.4851 52 76.1811 48.922C75.2311 50.898 72.9891 52.456 69.5311 52.456C65.5031 52.456 62.2731 50.29 62.2731 46.718C62.2731 42.766 65.1991 41.512 69.9111 40.6L75.5731 39.46C75.5351 36.382 74.2431 34.9 71.5071 34.9C69.3411 34.9 67.9351 36.04 67.4411 38.244L62.6151 37.978ZM67.1371 46.566C67.1371 47.972 68.3151 49.074 70.7471 49.074C73.5591 49.074 75.6491 47.06 75.6491 42.956V42.766L71.7731 43.45C69.1511 43.944 67.1371 44.21 67.1371 46.566ZM83.7886 27.3H88.5006V31.86H93.8206V35.546H88.5006V45.882C88.5006 47.478 89.2606 48.276 90.7806 48.276H93.8206V52H90.0586C85.9546 52 83.7886 49.91 83.7886 45.882V35.546H80.6346V31.86H83.7886V27.3ZM115.902 31.86L120.12 46.604L124.262 31.86H128.898L122.78 52H117.84L113.812 38.282L109.784 52H104.844L98.7264 31.86H103.362L107.504 46.604L111.722 31.86H115.902ZM128.78 31.86H133.492V52H128.78V31.86ZM128.704 29.01V25.02H133.606V29.01H128.704ZM135.711 25.02H140.423V46.87C140.423 47.82 140.879 48.276 141.829 48.276H143.387V52H140.613C137.687 52 135.711 50.138 135.711 47.06V25.02ZM144.083 25.02H148.795V46.87C148.795 47.82 149.251 48.276 150.201 48.276H151.759V52H148.985C146.059 52 144.083 50.138 144.083 47.06V25.02ZM156.765 31.86H161.401L166.797 47.06L172.041 31.86H176.677L168.659 54.166C167.785 56.598 166.189 57.7 163.529 57.7H160.451V54.052H162.731C163.833 54.052 164.479 53.672 164.821 52.722L165.429 51.24H164.023L156.765 31.86ZM184.201 52.456C178.235 52.456 174.321 48.314 174.321 41.93C174.321 35.546 178.235 31.404 184.201 31.404C190.167 31.404 194.081 35.546 194.081 41.93C194.081 48.314 190.167 52.456 184.201 52.456ZM179.185 41.93C179.185 46.11 181.009 48.58 184.201 48.58C187.393 48.58 189.217 46.11 189.217 41.93C189.217 37.75 187.393 35.28 184.201 35.28C181.009 35.28 179.185 37.75 179.185 41.93ZM212.187 52H207.855L207.779 48.732C206.715 51.392 204.435 52.456 201.813 52.456C197.443 52.456 195.049 49.302 195.049 44.818V31.86H199.761V43.298C199.761 46.718 200.673 48.58 203.219 48.58C205.879 48.58 207.475 46.718 207.475 43.298V31.86H212.187V52ZM232.434 38.282C232.054 36.23 230.154 35.014 228.254 35.014C226.316 35.014 224.796 36.002 224.834 37.636C224.872 39.346 227 40.03 228.976 40.41C234.334 41.322 237.45 42.728 237.45 46.642C237.45 50.632 233.536 52.456 228.938 52.456C223.504 52.456 219.818 49.872 219.476 45.616L224.302 45.35C224.682 47.478 226.278 48.808 228.862 48.808C230.534 48.808 232.586 48.2 232.586 46.49C232.548 44.514 230.268 44.21 228.178 43.754C223.428 42.804 219.97 41.55 219.97 37.75C219.97 33.798 223.238 31.366 228.52 31.366C233.156 31.366 236.538 33.95 237.184 38.054L232.434 38.282ZM237.971 25.02H242.683V34.52C243.861 32.316 246.103 31.404 248.535 31.404C252.981 31.404 255.299 34.71 255.299 39.042V52H250.587V40.676C250.587 37.294 249.675 35.432 247.053 35.432C244.317 35.432 242.683 37.294 242.683 40.676V52H237.971V25.02ZM256.993 31.86H261.705V52H256.993V31.86ZM256.917 29.01V25.02H261.819V29.01H256.917ZM263.658 57.7V31.86H268.104L268.218 34.824C269.32 32.62 271.41 31.404 274.298 31.404C280.112 31.404 282.924 36.192 282.924 41.93C282.924 47.668 280.112 52.456 274.298 52.456C271.6 52.456 269.548 51.316 268.37 49.188V57.7H263.658ZM267.99 41.93C267.99 45.388 269.548 48.58 273.006 48.58C276.54 48.58 278.022 45.426 278.022 41.93C278.022 38.434 276.502 35.242 273.006 35.242C269.51 35.242 267.99 38.472 267.99 41.93ZM289.346 43.716C289.346 40.258 290.22 38.32 292.994 36.306C294.742 34.938 296.452 34.33 296.452 32.088C296.49 29.998 294.742 28.516 292.006 28.516C289.46 28.516 287.674 30.454 287.294 33.228L282.354 33C282.848 28.022 286.724 24.412 291.854 24.412C297.44 24.412 301.354 27.566 301.354 32.088C301.354 34.748 300.062 36.686 296.832 38.738C294.78 40.068 294.096 41.322 294.096 43.716H289.346ZM289.004 52V46.946H294.324V52H289.004Z" fill="#FFFFFF"></path><path d="M9.92458 25.02V24.52H9.27319L9.44158 25.1493L9.92458 25.02ZM14.9786 25.02L15.4643 24.9013L15.3711 24.52H14.9786V25.02ZM19.9566 45.388L19.4709 45.5067L20.4421 45.5076L19.9566 45.388ZM24.9726 25.02V24.52H24.5808L24.4871 24.9004L24.9726 25.02ZM29.4946 25.02L29.9799 24.8996L29.8857 24.52H29.4946V25.02ZM34.5486 45.388L34.0633 45.5084L35.0345 45.5059L34.5486 45.388ZM39.4886 25.02V24.52H39.0954L39.0027 24.9021L39.4886 25.02ZM44.5806 25.02L45.0638 25.1486L45.2311 24.52H44.5806V25.02ZM37.3986 52V52.5H37.7829L37.8818 52.1286L37.3986 52ZM32.0406 52L31.557 52.1269L31.6549 52.5H32.0406V52ZM27.2526 33.76L27.7362 33.6331L27.2507 31.7834L26.7687 33.634L27.2526 33.76ZM22.5026 52V52.5H22.8891L22.9864 52.126L22.5026 52ZM17.1446 52L16.6616 52.1293L16.7608 52.5H17.1446V52ZM9.92458 25.52H14.9786V24.52H9.92458V25.52ZM14.4929 25.1387L19.4709 45.5067L20.4423 45.2693L15.4643 24.9013L14.4929 25.1387ZM20.4421 45.5076L25.4581 25.1396L24.4871 24.9004L19.4711 45.2684L20.4421 45.5076ZM24.9726 25.52H29.4946V24.52H24.9726V25.52ZM29.0093 25.1404L34.0633 45.5084L35.0339 45.2676L29.9799 24.8996L29.0093 25.1404ZM35.0345 45.5059L39.9745 25.1379L39.0027 24.9021L34.0627 45.2701L35.0345 45.5059ZM39.4886 25.52H44.5806V24.52H39.4886V25.52ZM44.0974 24.8914L36.9154 51.8714L37.8818 52.1286L45.0638 25.1486L44.0974 24.8914ZM37.3986 51.5H32.0406V52.5H37.3986V51.5ZM32.5242 51.8731L27.7362 33.6331L26.769 33.8869L31.557 52.1269L32.5242 51.8731ZM26.7687 33.634L22.0187 51.874L22.9864 52.126L27.7364 33.886L26.7687 33.634ZM22.5026 51.5H17.1446V52.5H22.5026V51.5ZM17.6276 51.8707L10.4076 24.8907L9.44158 25.1493L16.6616 52.1293L17.6276 51.8707ZM44.5049 25.02V24.52H44.0049V25.02H44.5049ZM49.2169 25.02H49.7169V24.52H49.2169V25.02ZM49.2169 34.52H48.7169L49.6578 34.7557L49.2169 34.52ZM61.8329 52V52.5H62.3329V52H61.8329ZM57.1209 52H56.6209V52.5H57.1209V52ZM49.2169 52V52.5H49.7169V52H49.2169ZM44.5049 52H44.0049V52.5H44.5049V52ZM44.5049 25.52H49.2169V24.52H44.5049V25.52ZM48.7169 25.02V34.52H49.7169V25.02H48.7169ZM49.6578 34.7557C50.7221 32.7645 52.7567 31.904 55.0689 31.904V30.904C52.5171 30.904 50.0676 31.8675 48.7759 34.2843L49.6578 34.7557ZM55.0689 31.904C57.1564 31.904 58.7013 32.6741 59.7334 33.9178C60.7755 35.1736 61.3329 36.9596 61.3329 39.042H62.3329C62.3329 36.7924 61.7313 34.7594 60.5029 33.2792C59.2645 31.7869 57.4274 30.904 55.0689 30.904V31.904ZM61.3329 39.042V52H62.3329V39.042H61.3329ZM61.8329 51.5H57.1209V52.5H61.8329V51.5ZM57.6209 52V40.676H56.6209V52H57.6209ZM57.6209 40.676C57.6209 38.961 57.3937 37.5318 56.761 36.5205C56.0976 35.4603 55.0372 34.932 53.5869 34.932V35.932C54.7585 35.932 55.4651 36.3347 55.9133 37.051C56.392 37.8162 56.6209 39.009 56.6209 40.676H57.6209ZM53.5869 34.932C52.0981 34.932 50.8553 35.4436 49.994 36.4631C49.1427 37.4705 48.7169 38.9113 48.7169 40.676H49.7169C49.7169 39.0587 50.108 37.8775 50.7578 37.1084C51.3975 36.3514 52.3396 35.932 53.5869 35.932V34.932ZM48.7169 40.676V52H49.7169V40.676H48.7169ZM49.2169 51.5H44.5049V52.5H49.2169V51.5ZM45.0049 52V25.02H44.0049V52H45.0049ZM62.6151 37.978L62.1242 37.8834L62.0158 38.4457L62.5876 38.4772L62.6151 37.978ZM82.3371 48.504H82.8371V48.004H82.3371V48.504ZM82.3371 52L82.3533 52.4997L82.8371 52.4841V52H82.3371ZM81.1591 52.038V52.538H81.1672L81.1753 52.5377L81.1591 52.038ZM76.1811 48.922L76.6787 48.8729L76.5034 47.0977L75.7305 48.7054L76.1811 48.922ZM69.9111 40.6L70.0062 41.0909L70.0098 41.0902L69.9111 40.6ZM75.5731 39.46L75.6718 39.9502L76.0782 39.8683L76.0731 39.4538L75.5731 39.46ZM67.4411 38.244L67.4136 38.7432L67.8364 38.7665L67.929 38.3534L67.4411 38.244ZM75.6491 42.766H76.1491V42.17L75.5623 42.2736L75.6491 42.766ZM71.7731 43.45L71.6862 42.9576L71.6806 42.9586L71.7731 43.45ZM63.1061 38.0726C63.4837 36.1126 64.4289 34.5835 65.8346 33.5391C67.2452 32.4911 69.1571 31.904 71.5071 31.904V30.904C68.9932 30.904 66.8581 31.5329 65.2382 32.7364C63.6134 33.9435 62.5446 35.7014 62.1242 37.8834L63.1061 38.0726ZM71.5071 31.904C74.3132 31.904 76.3725 32.6325 77.731 33.965C79.088 35.2958 79.8231 37.3051 79.8231 40.03H80.8231C80.8231 37.1309 80.0383 34.8272 78.4313 33.251C76.8258 31.6765 74.4771 30.904 71.5071 30.904V31.904ZM79.8231 40.03V47.06H80.8231V40.03H79.8231ZM79.8231 47.06C79.8231 47.6776 79.9432 48.2011 80.2935 48.5591C80.6487 48.9223 81.1314 49.004 81.5771 49.004V48.004C81.2249 48.004 81.0806 47.9337 81.0083 47.8599C80.9311 47.7809 80.8231 47.5824 80.8231 47.06H79.8231ZM81.5771 49.004H82.3371V48.004H81.5771V49.004ZM81.8371 48.504V52H82.8371V48.504H81.8371ZM82.321 51.5003L81.143 51.5383L81.1753 52.5377L82.3533 52.4997L82.321 51.5003ZM81.1591 51.538C80.331 51.538 79.2557 51.5235 78.3544 51.169C77.9134 50.9955 77.5327 50.7469 77.2461 50.3928C76.9616 50.0414 76.7463 49.5574 76.6787 48.8729L75.6836 48.9711C75.768 49.8256 76.0467 50.5006 76.4688 51.022C76.8887 51.5407 77.4271 51.8788 77.9884 52.0995C79.0916 52.5335 80.3533 52.538 81.1591 52.538V51.538ZM75.7305 48.7054C74.8774 50.4798 72.8305 51.956 69.5311 51.956V52.956C73.1478 52.956 75.5849 51.3162 76.6318 49.1386L75.7305 48.7054ZM69.5311 51.956C67.601 51.956 65.899 51.4364 64.6926 50.5272C63.4973 49.6264 62.7731 48.3354 62.7731 46.718H61.7731C61.7731 48.6726 62.6639 50.2506 64.0907 51.3258C65.5063 52.3926 67.4333 52.956 69.5311 52.956V51.956ZM62.7731 46.718C62.7731 44.8961 63.4323 43.7518 64.6113 42.929C65.8372 42.0736 67.6524 41.5464 70.0062 41.0909L69.8161 40.1091C67.4578 40.5656 65.4541 41.1214 64.039 42.109C62.577 43.1292 61.7731 44.5879 61.7731 46.718H62.7731ZM70.0098 41.0902L75.6718 39.9502L75.4745 38.9698L69.8125 40.1098L70.0098 41.0902ZM76.0731 39.4538C76.0534 37.8587 75.7095 36.5776 74.926 35.694C74.1305 34.797 72.964 34.4 71.5071 34.4V35.4C72.7863 35.4 73.6338 35.744 74.1778 36.3575C74.7338 36.9844 75.0549 37.9833 75.0732 39.4662L76.0731 39.4538ZM71.5071 34.4C70.3347 34.4 69.3219 34.71 68.5302 35.3588C67.7399 36.0064 67.2184 36.9519 66.9533 38.1346L67.929 38.3534C68.1579 37.3321 68.5864 36.6056 69.1641 36.1322C69.7404 35.66 70.5136 35.4 71.5071 35.4V34.4ZM67.4687 37.7448L62.6427 37.4788L62.5876 38.4772L67.4136 38.7432L67.4687 37.7448ZM66.6371 46.566C66.6371 47.4227 67.0028 48.1989 67.7291 48.7465C68.4417 49.2837 69.4626 49.574 70.7471 49.574V48.574C69.5997 48.574 68.8156 48.3133 68.3312 47.948C67.8605 47.5931 67.6371 47.1153 67.6371 46.566H66.6371ZM70.7471 49.574C72.2791 49.574 73.6506 49.0211 74.6318 47.88C75.606 46.7469 76.1491 45.0884 76.1491 42.956H75.1491C75.1491 44.9276 74.6473 46.3281 73.8735 47.228C73.1067 48.1199 72.0272 48.574 70.7471 48.574V49.574ZM76.1491 42.956V42.766H75.1491V42.956H76.1491ZM75.5623 42.2736L71.6863 42.9576L71.86 43.9424L75.736 43.2584L75.5623 42.2736ZM71.6806 42.9586C70.409 43.1982 69.1572 43.4003 68.2452 43.8641C67.7724 44.1045 67.36 44.4283 67.07 44.8877C66.7794 45.348 66.6371 45.904 66.6371 46.566H67.6371C67.6371 46.05 67.7466 45.6892 67.9156 45.4216C68.0851 45.153 68.3401 44.9377 68.6986 44.7554C69.449 44.3737 70.5153 44.1958 71.8657 43.9414L71.6806 42.9586ZM83.7886 27.3V26.8H83.2886V27.3H83.7886ZM88.5006 27.3H89.0006V26.8H88.5006V27.3ZM88.5006 31.86H88.0006V32.36H88.5006V31.86ZM93.8206 31.86H94.3206V31.36H93.8206V31.86ZM93.8206 35.546V36.046H94.3206V35.546H93.8206ZM88.5006 35.546V35.046H88.0006V35.546H88.5006ZM93.8206 48.276H94.3206V47.776H93.8206V48.276ZM93.8206 52V52.5H94.3206V52H93.8206ZM83.7886 35.546H84.2886V35.046H83.7886V35.546ZM80.6346 35.546H80.1346V36.046H80.6346V35.546ZM80.6346 31.86V31.36H80.1346V31.86H80.6346ZM83.7886 31.86V32.36H84.2886V31.86H83.7886ZM83.7886 27.8H88.5006V26.8H83.7886V27.8ZM88.0006 27.3V31.86H89.0006V27.3H88.0006ZM88.5006 32.36H93.8206V31.36H88.5006V32.36ZM93.3206 31.86V35.546H94.3206V31.86H93.3206ZM93.8206 35.046H88.5006V36.046H93.8206V35.046ZM88.0006 35.546V45.882H89.0006V35.546H88.0006ZM88.0006 45.882C88.0006 46.7511 88.2071 47.4958 88.7085 48.0223C89.2143 48.5534 89.9371 48.776 90.7806 48.776V47.776C90.104 47.776 89.6869 47.5996 89.4326 47.3327C89.174 47.0611 89.0006 46.6089 89.0006 45.882H88.0006ZM90.7806 48.776H93.8206V47.776H90.7806V48.776ZM93.3206 48.276V52H94.3206V48.276H93.3206ZM93.8206 51.5H90.0586V52.5H93.8206V51.5ZM90.0586 51.5C88.0859 51.5 86.6634 50.9981 85.7332 50.0931C84.8055 49.1904 84.2886 47.8095 84.2886 45.882H83.2886C83.2886 47.9825 83.8547 49.6606 85.0359 50.8099C86.2148 51.9569 87.9272 52.5 90.0586 52.5V51.5ZM84.2886 45.882V35.546H83.2886V45.882H84.2886ZM83.7886 35.046H80.6346V36.046H83.7886V35.046ZM81.1346 35.546V31.86H80.1346V35.546H81.1346ZM80.6346 32.36H83.7886V31.36H80.6346V32.36ZM84.2886 31.86V27.3H83.2886V31.86H84.2886ZM115.902 31.86L116.383 31.7225L116.279 31.36H115.902V31.86ZM120.12 46.604L119.64 46.7415L120.125 48.4371L120.602 46.7392L120.12 46.604ZM124.262 31.86V31.36H123.884L123.781 31.7248L124.262 31.86ZM128.898 31.86L129.377 32.0053L129.573 31.36H128.898V31.86ZM122.78 52V52.5H123.151L123.259 52.1453L122.78 52ZM117.84 52L117.361 52.1409L117.466 52.5H117.84V52ZM113.812 38.282L114.292 38.1411L113.812 36.5073L113.333 38.1411L113.812 38.282ZM109.784 52V52.5H110.159L110.264 52.1409L109.784 52ZM104.844 52L104.366 52.1453L104.474 52.5H104.844V52ZM98.7264 31.86V31.36H98.052L98.248 32.0053L98.7264 31.86ZM103.362 31.86L103.844 31.7248L103.741 31.36H103.362V31.86ZM107.504 46.604L107.023 46.7392L107.5 48.4371L107.985 46.7415L107.504 46.604ZM111.722 31.86V31.36H111.345L111.242 31.7225L111.722 31.86ZM115.422 31.9975L119.64 46.7415L120.601 46.4665L116.383 31.7225L115.422 31.9975ZM120.602 46.7392L124.744 31.9952L123.781 31.7248L119.639 46.4688L120.602 46.7392ZM124.262 32.36H128.898V31.36H124.262V32.36ZM128.42 31.7147L122.302 51.8547L123.259 52.1453L129.377 32.0053L128.42 31.7147ZM122.78 51.5H117.84V52.5H122.78V51.5ZM118.32 51.8591L114.292 38.1411L113.333 38.4229L117.361 52.1409L118.32 51.8591ZM113.333 38.1411L109.305 51.8591L110.264 52.1409L114.292 38.4229L113.333 38.1411ZM109.784 51.5H104.844V52.5H109.784V51.5ZM105.323 51.8547L99.2048 31.7147L98.248 32.0053L104.366 52.1453L105.323 51.8547ZM98.7264 32.36H103.362V31.36H98.7264V32.36ZM102.881 31.9952L107.023 46.7392L107.986 46.4688L103.844 31.7248L102.881 31.9952ZM107.985 46.7415L112.203 31.9975L111.242 31.7225L107.024 46.4665L107.985 46.7415ZM111.722 32.36H115.902V31.36H111.722V32.36ZM128.78 31.86V31.36H128.28V31.86H128.78ZM133.492 31.86H133.992V31.36H133.492V31.86ZM133.492 52V52.5H133.992V52H133.492ZM128.78 52H128.28V52.5H128.78V52ZM128.704 29.01H128.204V29.51H128.704V29.01ZM128.704 25.02V24.52H128.204V25.02H128.704ZM133.606 25.02H134.106V24.52H133.606V25.02ZM133.606 29.01V29.51H134.106V29.01H133.606ZM128.78 32.36H133.492V31.36H128.78V32.36ZM132.992 31.86V52H133.992V31.86H132.992ZM133.492 51.5H128.78V52.5H133.492V51.5ZM129.28 52V31.86H128.28V52H129.28ZM129.204 29.01V25.02H128.204V29.01H129.204ZM128.704 25.52H133.606V24.52H128.704V25.52ZM133.106 25.02V29.01H134.106V25.02H133.106ZM133.606 28.51H128.704V29.51H133.606V28.51ZM135.711 25.02V24.52H135.211V25.02H135.711ZM140.423 25.02H140.923V24.52H140.423V25.02ZM143.387 48.276H143.887V47.776H143.387V48.276ZM143.387 52V52.5H143.887V52H143.387ZM135.711 25.52H140.423V24.52H135.711V25.52ZM139.923 25.02V46.87H140.923V25.02H139.923ZM139.923 46.87C139.923 47.4169 140.054 47.9207 140.416 48.2828C140.778 48.6449 141.282 48.776 141.829 48.776V47.776C141.426 47.776 141.227 47.6791 141.123 47.5757C141.02 47.4723 140.923 47.2731 140.923 46.87H139.923ZM141.829 48.776H143.387V47.776H141.829V48.776ZM142.887 48.276V52H143.887V48.276H142.887ZM143.387 51.5H140.613V52.5H143.387V51.5ZM140.613 51.5C139.257 51.5 138.166 51.0705 137.416 50.3287C136.668 49.5881 136.211 48.4895 136.211 47.06H135.211C135.211 48.7085 135.743 50.0799 136.713 51.0398C137.683 51.9985 139.043 52.5 140.613 52.5V51.5ZM136.211 47.06V25.02H135.211V47.06H136.211ZM144.083 25.02V24.52H143.583V25.02H144.083ZM148.795 25.02H149.295V24.52H148.795V25.02ZM151.759 48.276H152.259V47.776H151.759V48.276ZM151.759 52V52.5H152.259V52H151.759ZM144.083 25.52H148.795V24.52H144.083V25.52ZM148.295 25.02V46.87H149.295V25.02H148.295ZM148.295 46.87C148.295 47.4169 148.426 47.9207 148.788 48.2828C149.15 48.6449 149.654 48.776 150.201 48.776V47.776C149.798 47.776 149.599 47.6791 149.495 47.5757C149.392 47.4723 149.295 47.2731 149.295 46.87H148.295ZM150.201 48.776H151.759V47.776H150.201V48.776ZM151.259 48.276V52H152.259V48.276H151.259ZM151.759 51.5H148.985V52.5H151.759V51.5ZM148.985 51.5C147.629 51.5 146.538 51.0705 145.788 50.3287C145.039 49.5881 144.583 48.4895 144.583 47.06H143.583C143.583 48.7085 144.115 50.0799 145.085 51.0398C146.055 51.9985 147.415 52.5 148.985 52.5V51.5ZM144.583 47.06V25.02H143.583V47.06H144.583ZM156.765 31.86V31.36H156.044L156.297 32.0354L156.765 31.86ZM161.401 31.86L161.873 31.6927L161.755 31.36H161.401V31.86ZM166.797 47.06L166.326 47.2273L166.804 48.5736L167.27 47.2231L166.797 47.06ZM172.041 31.86V31.36H171.685L171.569 31.6969L172.041 31.86ZM176.677 31.86L177.148 32.0291L177.389 31.36H176.677V31.86ZM168.659 54.166L168.189 53.9969L168.189 53.9969L168.659 54.166ZM160.451 57.7H159.951V58.2H160.451V57.7ZM160.451 54.052V53.552H159.951V54.052H160.451ZM164.821 52.722L164.359 52.5322L164.355 52.5423L164.351 52.5526L164.821 52.722ZM165.429 51.24L165.892 51.4298L166.175 50.74H165.429V51.24ZM164.023 51.24L163.555 51.4154L163.677 51.74H164.023V51.24ZM156.765 32.36H161.401V31.36H156.765V32.36ZM160.93 32.0273L166.326 47.2273L167.269 46.8927L161.873 31.6927L160.93 32.0273ZM167.27 47.2231L172.514 32.0231L171.569 31.6969L166.325 46.8969L167.27 47.2231ZM172.041 32.36H176.677V31.36H172.041V32.36ZM176.207 31.6909L168.189 53.9969L169.13 54.3351L177.148 32.0291L176.207 31.6909ZM168.189 53.9969C167.777 55.1439 167.213 55.9287 166.48 56.4333C165.747 56.9389 164.791 57.2 163.529 57.2V58.2C164.927 58.2 166.1 57.9101 167.048 57.2567C167.997 56.6023 168.668 55.6201 169.13 54.3351L168.189 53.9969ZM163.529 57.2H160.451V58.2H163.529V57.2ZM160.951 57.7V54.052H159.951V57.7H160.951ZM160.451 54.552H162.731V53.552H160.451V54.552ZM162.731 54.552C163.335 54.552 163.876 54.4488 164.326 54.1672C164.786 53.8802 165.093 53.4443 165.292 52.8914L164.351 52.5526C164.208 52.9497 164.021 53.1788 163.796 53.3193C163.563 53.4652 163.23 53.552 162.731 53.552V54.552ZM165.284 52.9118L165.892 51.4298L164.967 51.0502L164.359 52.5322L165.284 52.9118ZM165.429 50.74H164.023V51.74H165.429V50.74ZM164.492 51.0646L157.234 31.6846L156.297 32.0354L163.555 51.4154L164.492 51.0646ZM184.201 51.956C181.339 51.956 179.007 50.9654 177.388 49.2445C175.767 47.5206 174.821 45.0199 174.821 41.93H173.821C173.821 45.2241 174.832 47.9864 176.66 49.9295C178.49 51.8756 181.098 52.956 184.201 52.956V51.956ZM174.821 41.93C174.821 38.8401 175.767 36.3394 177.388 34.6155C179.007 32.8946 181.339 31.904 184.201 31.904V30.904C181.098 30.904 178.49 31.9844 176.66 33.9305C174.832 35.8736 173.821 38.6359 173.821 41.93H174.821ZM184.201 31.904C187.064 31.904 189.396 32.8946 191.014 34.6155C192.635 36.3394 193.581 38.8401 193.581 41.93H194.581C194.581 38.6359 193.57 35.8736 191.743 33.9305C189.913 31.9844 187.305 30.904 184.201 30.904V31.904ZM193.581 41.93C193.581 45.0199 192.635 47.5206 191.014 49.2445C189.396 50.9654 187.064 51.956 184.201 51.956V52.956C187.305 52.956 189.913 51.8756 191.743 49.9295C193.57 47.9864 194.581 45.2241 194.581 41.93H193.581ZM178.685 41.93C178.685 44.0835 179.154 45.866 180.096 47.1225C181.053 48.3984 182.461 49.08 184.201 49.08V48.08C182.75 48.08 181.649 47.5266 180.896 46.5225C180.129 45.499 179.685 43.9565 179.685 41.93H178.685ZM184.201 49.08C185.942 49.08 187.349 48.3984 188.306 47.1225C189.249 45.866 189.717 44.0835 189.717 41.93H188.717C188.717 43.9565 188.274 45.499 187.506 46.5225C186.753 47.5266 185.653 48.08 184.201 48.08V49.08ZM189.717 41.93C189.717 39.7765 189.249 37.994 188.306 36.7375C187.349 35.4616 185.942 34.78 184.201 34.78V35.78C185.653 35.78 186.753 36.3334 187.506 37.3375C188.274 38.361 188.717 39.9035 188.717 41.93H189.717ZM184.201 34.78C182.461 34.78 181.053 35.4616 180.096 36.7375C179.154 37.994 178.685 39.7765 178.685 41.93H179.685C179.685 39.9035 180.129 38.361 180.896 37.3375C181.649 36.3334 182.75 35.78 184.201 35.78V34.78ZM212.187 52V52.5H212.687V52H212.187ZM207.855 52L207.355 52.0116L207.366 52.5H207.855V52ZM207.779 48.732L208.279 48.7204L207.315 48.5463L207.779 48.732ZM195.049 31.86V31.36H194.549V31.86H195.049ZM199.761 31.86H200.261V31.36H199.761V31.86ZM207.475 31.86V31.36H206.975V31.86H207.475ZM212.187 31.86H212.687V31.36H212.187V31.86ZM212.187 51.5H207.855V52.5H212.187V51.5ZM208.355 51.9884L208.279 48.7204L207.279 48.7436L207.355 52.0116L208.355 51.9884ZM207.315 48.5463C206.346 50.9675 204.289 51.956 201.813 51.956V52.956C204.581 52.956 207.084 51.8165 208.243 48.9177L207.315 48.5463ZM201.813 51.956C199.758 51.956 198.213 51.2198 197.173 49.995C196.125 48.7596 195.549 46.976 195.549 44.818H194.549C194.549 47.144 195.17 49.1794 196.411 50.642C197.661 52.1152 199.498 52.956 201.813 52.956V51.956ZM195.549 44.818V31.86H194.549V44.818H195.549ZM195.049 32.36H199.761V31.36H195.049V32.36ZM199.261 31.86V43.298H200.261V31.86H199.261ZM199.261 43.298C199.261 45.0318 199.488 46.468 200.109 47.4824C200.76 48.5467 201.8 49.08 203.219 49.08V48.08C202.092 48.08 201.403 47.6823 200.962 46.9606C200.49 46.189 200.261 44.9842 200.261 43.298H199.261ZM203.219 49.08C204.675 49.08 205.891 48.5647 206.731 47.5383C207.56 46.5262 207.975 45.078 207.975 43.298H206.975C206.975 44.938 206.592 46.1308 205.958 46.9047C205.335 47.6643 204.423 48.08 203.219 48.08V49.08ZM207.975 43.298V31.86H206.975V43.298H207.975ZM207.475 32.36H212.187V31.36H207.475V32.36ZM211.687 31.86V52H212.687V31.86H211.687ZM232.434 38.282L231.942 38.373L232.022 38.8024L232.458 38.7814L232.434 38.282ZM224.834 37.636L225.334 37.6249L225.334 37.6244L224.834 37.636ZM228.976 40.41L228.881 40.9011L228.892 40.9029L228.976 40.41ZM219.476 45.616L219.448 45.1168L218.936 45.145L218.977 45.656L219.476 45.616ZM224.302 45.35L224.794 45.2621L224.716 44.8264L224.274 44.8508L224.302 45.35ZM232.586 46.49H233.086L233.086 46.4804L232.586 46.49ZM228.178 43.754L228.284 43.2654L228.276 43.2637L228.178 43.754ZM237.184 38.054L237.208 38.5534L237.764 38.5267L237.678 37.9763L237.184 38.054ZM232.926 38.191C232.493 35.8539 230.343 34.514 228.254 34.514V35.514C229.965 35.514 231.615 36.6061 231.942 38.373L232.926 38.191ZM228.254 34.514C227.207 34.514 226.231 34.78 225.508 35.3086C224.771 35.847 224.311 36.6517 224.334 37.6476L225.334 37.6244C225.319 36.9863 225.6 36.48 226.098 36.1159C226.61 35.742 227.363 35.514 228.254 35.514V34.514ZM224.334 37.6471C224.359 38.7533 225.074 39.4837 225.937 39.9596C226.793 40.4317 227.884 40.7091 228.881 40.901L229.07 39.919C228.092 39.7309 227.131 39.4763 226.42 39.0839C225.715 38.6953 225.347 38.2287 225.334 37.6249L224.334 37.6471ZM228.892 40.9029C231.564 41.3578 233.592 41.9248 234.947 42.8177C235.615 43.2581 236.109 43.7714 236.439 44.3827C236.769 44.9942 236.95 45.7315 236.95 46.642H237.95C237.95 45.5955 237.741 44.6893 237.319 43.9078C236.898 43.1263 236.278 42.4972 235.497 41.9828C233.955 40.9662 231.745 40.3742 229.06 39.9171L228.892 40.9029ZM236.95 46.642C236.95 48.4409 236.082 49.7431 234.656 50.6193C233.208 51.5093 231.182 51.956 228.938 51.956V52.956C231.292 52.956 233.521 52.4907 235.18 51.4712C236.861 50.4379 237.95 48.8331 237.95 46.642H236.95ZM228.938 51.956C226.295 51.956 224.125 51.3271 222.589 50.2256C221.063 49.1321 220.133 47.5552 219.974 45.576L218.977 45.656C219.16 47.9328 220.245 49.7759 222.006 51.0384C223.756 52.2929 226.147 52.956 228.938 52.956V51.956ZM219.503 46.1152L224.329 45.8492L224.274 44.8508L219.448 45.1168L219.503 46.1152ZM223.81 45.4379C224.019 46.6076 224.569 47.588 225.448 48.2717C226.324 48.9528 227.485 49.308 228.862 49.308V48.308C227.655 48.308 226.726 47.9982 226.062 47.4823C225.402 46.969 224.965 46.2204 224.794 45.2621L223.81 45.4379ZM228.862 49.308C229.746 49.308 230.762 49.1491 231.577 48.7363C232.405 48.3165 233.086 47.5936 233.086 46.49H232.086C232.086 47.0964 231.74 47.5325 231.125 47.8442C230.496 48.1629 229.65 48.308 228.862 48.308V49.308ZM233.086 46.4804C233.074 45.8818 232.889 45.3841 232.565 44.9799C232.247 44.5846 231.818 44.306 231.358 44.0968C230.459 43.6882 229.289 43.4847 228.284 43.2655L228.071 44.2425C229.157 44.4793 230.171 44.6558 230.944 45.0072C231.32 45.178 231.599 45.3744 231.785 45.6061C231.964 45.8289 232.078 46.1102 232.086 46.4996L233.086 46.4804ZM228.276 43.2637C225.901 42.7887 223.93 42.2508 222.557 41.3962C221.878 40.9741 221.362 40.4843 221.014 39.9012C220.667 39.3207 220.47 38.6205 220.47 37.75H219.47C219.47 38.7795 219.705 39.661 220.155 40.4141C220.604 41.1645 221.249 41.7601 222.029 42.2453C223.571 43.2052 225.705 43.7693 228.08 44.2443L228.276 43.2637ZM220.47 37.75C220.47 35.9286 221.215 34.4825 222.563 33.4768C223.927 32.459 225.948 31.866 228.52 31.866V30.866C225.81 30.866 223.555 31.489 221.965 32.6752C220.359 33.8735 219.47 35.6194 219.47 37.75H220.47ZM228.52 31.866C232.956 31.866 236.089 34.314 236.69 38.1317L237.678 37.9763C236.987 33.586 233.356 30.866 228.52 30.866V31.866ZM237.16 37.5546L232.41 37.7826L232.458 38.7814L237.208 38.5534L237.16 37.5546ZM237.971 25.02V24.52H237.471V25.02H237.971ZM242.683 25.02H243.183V24.52H242.683V25.02ZM242.683 34.52H242.183L243.124 34.7557L242.683 34.52ZM255.299 52V52.5H255.799V52H255.299ZM250.587 52H250.087V52.5H250.587V52ZM242.683 52V52.5H243.183V52H242.683ZM237.971 52H237.471V52.5H237.971V52ZM237.971 25.52H242.683V24.52H237.971V25.52ZM242.183 25.02V34.52H243.183V25.02H242.183ZM243.124 34.7557C244.188 32.7645 246.223 31.904 248.535 31.904V30.904C245.983 30.904 243.534 31.8675 242.242 34.2843L243.124 34.7557ZM248.535 31.904C250.622 31.904 252.167 32.6741 253.199 33.9178C254.242 35.1736 254.799 36.9596 254.799 39.042H255.799C255.799 36.7924 255.197 34.7594 253.969 33.2792C252.731 31.7869 250.893 30.904 248.535 30.904V31.904ZM254.799 39.042V52H255.799V39.042H254.799ZM255.299 51.5H250.587V52.5H255.299V51.5ZM251.087 52V40.676H250.087V52H251.087ZM251.087 40.676C251.087 38.961 250.86 37.5318 250.227 36.5205C249.564 35.4603 248.503 34.932 247.053 34.932V35.932C248.225 35.932 248.931 36.3347 249.379 37.051C249.858 37.8162 250.087 39.009 250.087 40.676H251.087ZM247.053 34.932C245.564 34.932 244.321 35.4436 243.46 36.4631C242.609 37.4705 242.183 38.9113 242.183 40.676H243.183C243.183 39.0587 243.574 37.8775 244.224 37.1084C244.863 36.3514 245.806 35.932 247.053 35.932V34.932ZM242.183 40.676V52H243.183V40.676H242.183ZM242.683 51.5H237.971V52.5H242.683V51.5ZM238.471 52V25.02H237.471V52H238.471ZM256.993 31.86V31.36H256.493V31.86H256.993ZM261.705 31.86H262.205V31.36H261.705V31.86ZM261.705 52V52.5H262.205V52H261.705ZM256.993 52H256.493V52.5H256.993V52ZM256.917 29.01H256.417V29.51H256.917V29.01ZM256.917 25.02V24.52H256.417V25.02H256.917ZM261.819 25.02H262.319V24.52H261.819V25.02ZM261.819 29.01V29.51H262.319V29.01H261.819ZM256.993 32.36H261.705V31.36H256.993V32.36ZM261.205 31.86V52H262.205V31.86H261.205ZM261.705 51.5H256.993V52.5H261.705V51.5ZM257.493 52V31.86H256.493V52H257.493ZM257.417 29.01V25.02H256.417V29.01H257.417ZM256.917 25.52H261.819V24.52H256.917V25.52ZM261.319 25.02V29.01H262.319V25.02H261.319ZM261.819 28.51H256.917V29.51H261.819V28.51ZM263.658 57.7H263.158V58.2H263.658V57.7ZM263.658 31.86V31.36H263.158V31.86H263.658ZM268.104 31.86L268.604 31.8408L268.585 31.36H268.104V31.86ZM268.218 34.824L267.718 34.8432L268.665 35.0476L268.218 34.824ZM268.37 49.188L268.807 48.9458L267.87 47.2524V49.188H268.37ZM268.37 57.7V58.2H268.87V57.7H268.37ZM264.158 57.7V31.86H263.158V57.7H264.158ZM263.658 32.36H268.104V31.36H263.658V32.36ZM267.604 31.8792L267.718 34.8432L268.718 34.8048L268.604 31.8408L267.604 31.8792ZM268.665 35.0476C269.67 33.0384 271.569 31.904 274.298 31.904V30.904C271.251 30.904 268.97 32.2016 267.771 34.6004L268.665 35.0476ZM274.298 31.904C277.049 31.904 279.056 33.0281 280.391 34.8145C281.738 36.6184 282.424 39.1346 282.424 41.93H283.424C283.424 38.9874 282.704 36.2406 281.192 34.216C279.667 32.1739 277.361 30.904 274.298 30.904V31.904ZM282.424 41.93C282.424 44.7254 281.738 47.2416 280.391 49.0455C279.056 50.8319 277.049 51.956 274.298 51.956V52.956C277.361 52.956 279.667 51.6861 281.192 49.644C282.704 47.6194 283.424 44.8726 283.424 41.93H282.424ZM274.298 51.956C271.76 51.956 269.887 50.8963 268.807 48.9458L267.933 49.4302C269.209 51.7357 271.44 52.956 274.298 52.956V51.956ZM267.87 49.188V57.7H268.87V49.188H267.87ZM268.37 57.2H263.658V58.2H268.37V57.2ZM267.49 41.93C267.49 43.7242 267.893 45.4929 268.785 46.8295C269.692 48.1868 271.096 49.08 273.006 49.08V48.08C271.458 48.08 270.354 47.3772 269.617 46.274C268.866 45.1501 268.49 43.5938 268.49 41.93H267.49ZM273.006 49.08C274.949 49.08 276.356 48.2006 277.256 46.8422C278.14 45.5078 278.522 43.7379 278.522 41.93H277.522C277.522 43.6181 277.163 45.1732 276.422 46.2898C275.698 47.3824 274.597 48.08 273.006 48.08V49.08ZM278.522 41.93C278.522 40.1199 278.13 38.3416 277.242 36.9991C276.339 35.6343 274.934 34.742 273.006 34.742V35.742C274.574 35.742 275.677 36.4457 276.408 37.5509C277.154 38.6784 277.522 40.2441 277.522 41.93H278.522ZM273.006 34.742C271.076 34.742 269.671 35.6459 268.769 37.0141C267.882 38.3605 267.49 40.1381 267.49 41.93H268.49C268.49 40.2639 268.858 38.6975 269.604 37.5644C270.337 36.4531 271.44 35.742 273.006 35.742V34.742ZM289.346 43.716H288.846V44.216H289.346V43.716ZM292.994 36.306L293.288 36.7106L293.295 36.7053L293.302 36.6998L292.994 36.306ZM296.452 32.088L295.952 32.0789V32.088H296.452ZM287.294 33.228L287.271 33.7275L287.727 33.7485L287.789 33.2959L287.294 33.228ZM282.354 33L281.856 32.9506L281.804 33.4752L282.331 33.4995L282.354 33ZM296.832 38.738L296.564 38.3159L296.56 38.3184L296.832 38.738ZM294.096 43.716V44.216H294.596V43.716H294.096ZM289.004 52H288.504V52.5H289.004V52ZM289.004 46.946V46.446H288.504V46.946H289.004ZM294.324 46.946H294.824V46.446H294.324V46.946ZM294.324 52V52.5H294.824V52H294.324ZM289.846 43.716C289.846 42.0261 290.06 40.7614 290.58 39.6872C291.098 38.6165 291.943 37.6873 293.288 36.7106L292.7 35.9014C291.271 36.9387 290.292 37.9855 289.68 39.2518C289.069 40.5146 288.846 41.9479 288.846 43.716H289.846ZM293.302 36.6998C293.726 36.3684 294.144 36.0847 294.559 35.7947C294.965 35.5099 295.369 35.2181 295.72 34.8902C296.448 34.2104 296.952 33.3719 296.952 32.088H295.952C295.952 33.0461 295.601 33.6326 295.037 34.1593C294.742 34.4346 294.391 34.6915 293.985 34.9755C293.587 35.2543 293.136 35.5596 292.686 35.9122L293.302 36.6998ZM296.952 32.0971C296.974 30.8979 296.478 29.859 295.585 29.1308C294.702 28.4099 293.46 28.016 292.006 28.016V29.016C293.288 29.016 294.288 29.3631 294.953 29.9057C295.609 30.441 295.968 31.1881 295.952 32.0789L296.952 32.0971ZM292.006 28.016C289.143 28.016 287.203 30.2114 286.799 33.1601L287.789 33.2959C288.145 30.6966 289.777 29.016 292.006 29.016V28.016ZM287.317 32.7285L282.377 32.5005L282.331 33.4995L287.271 33.7275L287.317 32.7285ZM282.852 33.0494C283.32 28.3241 286.984 24.912 291.854 24.912V23.912C286.464 23.912 282.376 27.7199 281.856 32.9506L282.852 33.0494ZM291.854 24.912C294.556 24.912 296.814 25.6748 298.385 26.9433C299.948 28.2058 300.854 29.9839 300.854 32.088H301.854C301.854 29.6701 300.803 27.6102 299.013 26.1652C297.23 24.7262 294.738 23.912 291.854 23.912V24.912ZM300.854 32.088C300.854 33.3277 300.556 34.3776 299.89 35.3607C299.217 36.3554 298.149 37.309 296.564 38.316L297.1 39.16C298.745 38.115 299.938 37.0736 300.718 35.9213C301.506 34.7574 301.854 33.5083 301.854 32.088H300.854ZM296.56 38.3184C295.498 39.007 294.739 39.7079 294.256 40.5875C293.773 41.4679 293.596 42.4736 293.596 43.716H294.596C294.596 42.5644 294.761 41.7461 295.133 41.0685C295.505 40.3901 296.114 39.799 297.104 39.1576L296.56 38.3184ZM294.096 43.216H289.346V44.216H294.096V43.216ZM289.504 52V46.946H288.504V52H289.504ZM289.004 47.446H294.324V46.446H289.004V47.446ZM293.824 46.946V52H294.824V46.946H293.824ZM294.324 51.5H289.004V52.5H294.324V51.5Z" fill="#C9C9C9"></path></g><g filter="url(#filter1_d_1086_110200)" fill="none"><path clip-rule="evenodd" d="M155.5 78L200 156H111L155.5 78Z" fill="#FFFFFF" fill-rule="evenodd"></path><path clip-rule="evenodd" d="M155.5 78L200 156H111L155.5 78Z" fill-rule="evenodd" stroke="#C9C9C9" fill="none"></path></g><defs><filter color-interpolation-filters="sRGB" filterUnits="userSpaceOnUse" height="37.2878" id="filter0_d_1086_110200" width="295.429" x="7.92456" y="23.4121"><feFlood flood-opacity="0" result="BackgroundImageFix"></feFlood><feColorMatrix in="SourceAlpha" result="hardAlpha" type="matrix" values="0 0 0 0 0 0 0 0 0 0 0 0 0 0 0 0 0 0 127 0"></feColorMatrix><feOffset dy="1"></feOffset><feGaussianBlur stdDeviation="1"></feGaussianBlur><feColorMatrix type="matrix" values="0 0 0 0 0 0 0 0 0 0 0 0 0 0 0 0 0 0 0.04 0"></feColorMatrix><feBlend in2="BackgroundImageFix" mode="normal" result="effect1_dropShadow_1086_110200"></feBlend><feBlend in="SourceGraphic" in2="effect1_dropShadow_1086_110200" mode="normal" result="shape"></feBlend></filter><filter color-interpolation-filters="sRGB" filterUnits="userSpaceOnUse" height="83.509" id="filter1_d_1086_110200" width="94.7218" x="108.139" y="75.991"><feFlood flood-opacity="0" result="BackgroundImageFix"></feFlood><feColorMatrix in="SourceAlpha" result="hardAlpha" type="matrix" values="0 0 0 0 0 0 0 0 0 0 0 0 0 0 0 0 0 0 127 0"></feColorMatrix><feOffset dy="1"></feOffset><feGaussianBlur stdDeviation="1"></feGaussianBlur><feColorMatrix type="matrix" values="0 0 0 0 0 0 0 0 0 0 0 0 0 0 0 0 0 0 0.04 0"></feColorMatrix><feBlend in2="BackgroundImageFix" mode="normal" result="effect1_dropShadow_1086_110200"></feBlend><feBlend in="SourceGraphic" in2="effect1_dropShadow_1086_110200" mode="normal" result="shape"></feBlend></filter></defs></svg>