<svg xmlns:xlink="http://www.w3.org/1999/xlink" aria-label="Viable logo" fill="none" viewBox="0 0 260 87" xmlns="http://www.w3.org/2000/svg" class="geist-hide-on-dark" data-testid="geist-logo" width="260"  height="87" ><g clip-path="url(#clip0_540_2918443)" fill="none"><path d="M127.221 33.6391L117.959 65.4961H107.99L98.7255 33.6391H107.448L112.811 58.3444H113.136L118.499 33.6391H127.221ZM140.603 65.4961H132.205V38.1544L140.603 33.6391V65.4961ZM157.194 66.1999C154.521 66.1999 152.299 65.2795 150.53 63.4369C148.796 61.5944 147.93 58.9216 147.93 55.4185C147.93 51.9154 149.159 49.3691 151.613 47.7797C154.105 46.1902 157.718 45.3963 162.45 45.3963H166.513C166.513 42.9766 166.277 41.4235 165.807 40.7371C165.339 40.0143 164.273 39.6538 162.611 39.6538C160.987 39.6538 159.162 39.834 157.141 40.1946C154.892 40.6195 152.667 41.1622 150.476 41.8204L148.743 35.7537C150.223 35.0656 152.336 34.4347 155.081 33.8557C157.862 33.2421 160.337 32.9353 162.503 32.9353C166.946 32.9353 170.125 33.9649 172.037 36.0224C173.952 38.0452 174.909 41.0075 174.909 44.9075V65.4961H169.6L168.516 61.974H168.192C167.759 62.2999 167.18 62.6968 166.459 63.1665C165.773 63.6345 164.453 64.2672 162.503 65.0628C160.553 65.8203 158.784 66.1999 157.194 66.1999ZM166.513 51.6259C165.247 51.4457 163.55 51.3555 161.42 51.3555C159.325 51.3555 157.971 51.6259 157.357 52.1685C156.778 52.7093 156.491 53.7389 156.491 55.2556C156.491 56.7722 156.725 57.8382 157.194 58.4518C157.699 59.0308 158.46 59.3185 159.47 59.3185C161.347 59.3185 163.335 58.8141 165.429 57.8018L166.513 57.261V51.6259ZM182.879 23.1385L191.275 18.6232V33.7483C193.911 33.2057 196.241 32.9353 198.264 32.9353C206.138 32.9353 210.075 38.3347 210.075 49.1334C210.075 52.4579 209.695 55.292 208.936 57.6406C208.215 59.9512 207.222 61.7036 205.956 62.8961C203.573 65.0975 200.647 66.1999 197.181 66.1999C195.338 66.1999 193.008 65.9659 190.19 65.4961C187.411 65.0264 184.973 64.4665 182.879 63.8148V23.1402V23.1385ZM200.16 40.5742C199.654 40.068 198.787 39.815 197.56 39.815C195.445 39.8012 193.335 40.038 191.275 40.5204V58.8852C193.152 59.2474 194.851 59.4277 196.368 59.4277C197.921 59.4277 198.968 59.211 199.508 58.7777C200.774 57.7308 201.405 54.2086 201.405 48.213C201.405 43.9143 200.99 41.368 200.16 40.5742ZM225.084 65.4961H216.686V23.1385L225.084 18.6232V65.4961ZM246.414 66.1999C236.591 66.1999 231.677 60.6549 231.677 49.5667C231.677 38.4786 236.555 32.9353 246.305 32.9353C250.676 32.9353 253.963 34.1088 256.166 36.4558C258.369 38.768 259.471 42.6143 259.471 47.9963V52.4926H240.399C240.399 55.526 240.959 57.5314 242.079 58.5073C242.838 59.1937 243.904 59.5352 245.277 59.5352C247.806 59.5352 251.02 58.958 254.92 57.8018L256.816 57.2073L258.875 63.274C257.249 64.0332 255.226 64.7196 252.807 65.3332C250.387 65.9104 248.257 66.1999 246.414 66.1999ZM249.936 40.7371C249.285 39.9415 247.985 39.5446 246.035 39.5446C244.083 39.5446 242.694 40.0126 241.864 40.9538C241.032 41.8932 240.564 43.7167 240.455 46.4259L250.91 46.2093C250.838 43.3544 250.512 41.531 249.936 40.7371ZM2.43507e-06 45.6459C-0.0024678 38.656 1.87453 31.794 5.43444 25.7785C8.99434 19.763 14.1062 14.8154 20.2346 11.4537C26.3631 8.09198 33.2827 6.43994 40.2688 6.67055C47.2549 6.90116 54.0505 9.00594 59.9439 12.7645L59.9993 16.0093L56.5101 19.4985C50.0132 15.1481 42.1299 13.3708 34.3947 14.5124C26.6596 15.654 19.6258 19.6328 14.6626 25.6746C9.69931 31.7163 7.16159 39.3886 7.54333 47.1983C7.92508 55.008 11.199 62.3963 16.7278 67.9251C22.2567 73.454 29.6449 76.7279 37.4546 77.1096C45.2642 77.4914 52.9365 74.9537 58.9782 69.9904C65.0199 65.0271 68.9988 57.9934 70.1404 50.2581C71.282 42.5229 69.5046 34.6397 65.1543 28.1427L68.6435 24.6517L71.8883 24.7089C75.1391 29.815 77.1568 35.6077 77.7816 41.6284C78.4065 47.6492 77.6213 53.7328 75.4882 59.3976C73.3551 65.0624 69.9328 70.1529 65.492 74.2662C61.0512 78.3795 55.714 81.4027 49.9027 83.0965C44.0905 84.7895 37.964 85.1061 32.0083 84.0213C26.0525 82.9365 20.4311 80.4799 15.5893 76.8462C10.7474 73.2125 6.81794 68.5014 4.11213 63.086C1.40633 57.6707 -0.0015452 51.6997 2.43507e-06 45.6459ZM39.0052 31.2176C40.6833 31.2135 42.3488 31.507 43.9244 32.0843L49.5872 26.4214C46.3495 24.6264 42.7072 23.6873 39.0052 23.6932C34.1922 23.6917 29.5121 25.2722 25.6853 28.1913C21.8586 31.1104 19.0973 35.2063 17.8265 39.8485C16.5557 44.4908 16.8459 49.422 18.6524 53.8832C20.4589 58.3443 23.6816 62.0881 27.8243 64.5382C31.9671 66.9883 36.8002 68.0089 41.5799 67.4429C46.3595 66.8769 50.8206 64.7557 54.2765 61.4058C57.7324 58.0559 59.9916 53.663 60.7062 48.9033C61.4208 44.1436 60.5512 39.2809 58.2313 35.0639L52.5685 40.7267C53.6145 43.6107 53.714 46.753 52.8525 49.6973C51.9911 52.6417 50.2136 55.2349 47.7782 57.1003C45.3427 58.9657 42.3761 60.0064 39.309 60.071C36.2419 60.1357 33.234 59.2211 30.7221 57.46C28.2101 55.6989 26.3249 53.183 25.3401 50.2776C24.3553 47.3722 24.3222 44.2285 25.2456 41.303C26.169 38.3775 28.0009 35.8224 30.4752 34.0088C32.9495 32.1952 35.9374 31.2175 39.0052 31.2176ZM41.8635 39.4631C40.4062 38.7869 38.7573 38.6454 37.2062 39.0633C35.6549 39.4813 34.3004 40.4321 33.3802 41.749C32.46 43.0659 32.0328 44.6647 32.1736 46.265C32.3143 47.8654 33.0141 49.3651 34.1501 50.5011C35.286 51.6371 36.7857 52.3368 38.3861 52.4776C39.9864 52.6184 41.5853 52.1912 42.9021 51.2709C44.219 50.3507 45.1698 48.9962 45.5878 47.445C46.0057 45.8938 45.8642 44.2449 45.188 42.7876L67.1164 20.8609L72.5123 20.9597C72.9666 20.9681 73.418 20.8847 73.8394 20.7147C74.2608 20.5446 74.6436 20.2913 74.9649 19.97L84.5988 10.3361C84.6231 10.3115 84.64 10.2805 84.6473 10.2468C84.6547 10.213 84.6523 10.1778 84.6404 10.1454C84.6287 10.1135 84.6081 10.0857 84.5811 10.0651C84.554 10.0445 84.5217 10.0321 84.4879 10.0293L75.9651 9.21632C75.8288 9.20326 75.7014 9.14318 75.6046 9.0464C75.5078 8.94961 75.4477 8.82216 75.4347 8.68592L74.6235 0.163085C74.6203 0.12902 74.6075 0.0965605 74.5866 0.0694977C74.5657 0.0424349 74.5375 0.0218867 74.5053 0.0102535C74.4731 -0.00137976 74.4383 -0.00361753 74.4049 0.00380156C74.3715 0.0112206 74.3409 0.0279902 74.3167 0.0521512L64.6811 9.68952C64.3602 10.0108 64.1074 10.3933 63.9376 10.8144C63.7679 11.2355 63.6847 11.6865 63.6931 12.1405L63.7919 17.5364L41.8635 39.4631Z" fill="black"></path></g><defs><clipPath id="clip0_540_2918443"><rect fill="white" height="86.667" width="260"></rect></clipPath></defs></svg>