<svg xmlns:xlink="http://www.w3.org/1999/xlink" xmlns="http://www.w3.org/2000/svg" aria-hidden="true" fill="none" height="28" viewBox="0 0 28 28" width="28"><path d="M7 10.9375V9.1875H3.5V10.9375H7ZM3.5 10.9375V28H7V10.9375H3.5Z" fill="#171717"></path><path d="M22.75 26.25C20.817 26.25 19.25 24.683 19.25 22.75C19.25 20.817 20.817 19.25 22.75 19.25C24.683 19.25 26.25 20.817 26.25 22.75C26.25 24.683 24.683 26.25 22.75 26.25Z" stroke="#171717" stroke-linecap="round" stroke-linejoin="round" stroke-width="3.5px" fill="none"></path><path d="M5.25 8.75C3.317 8.75 1.75 7.183 1.75 5.25C1.75 3.317 3.317 1.75 5.25 1.75C7.183 1.75 8.75 3.317 8.75 5.25C8.75 7.183 7.183 8.75 5.25 8.75Z" stroke="#171717" stroke-linecap="round" stroke-linejoin="round" stroke-width="3.5px" fill="none"></path><path d="M19.25 22.75C15.537 22.75 11.976 21.275 9.35051 18.6495C6.725 16.024 5.25 12.463 5.25 8.75" stroke="#171717" stroke-linejoin="round" stroke-width="3.5px" fill="none"></path></svg>