<svg xmlns:xlink="http://www.w3.org/1999/xlink" aria-label="Replicate logo" fill="none" viewBox="0 0 280 66" xmlns="http://www.w3.org/2000/svg" class="geist-hide-on-dark" data-testid="geist-logo" width="280"  height="66" ><g clip-path="url(#clip0_1636_1679339)" fill="none"><mask height="66" id="mask0_1636_1679340" maskUnits="userSpaceOnUse" width="281" x="0" y="0" style="mask-type: luminance;" fill="none"><path d="M280.002 0.000488281H0.00244141V65.6639H280.002V0.000488281Z" fill="#FFFFFF"></path></mask><g mask="url(#mask0_1636_1679340)" fill="none"><path d="M47.5753 0.000488281V5.74604H6.52671V51.9841H0.00244141V0.000488281H47.5753Z" fill="black"></path><path d="M47.5748 11.2183V16.9638H19.0311V52.2579H12.5068V11.2183H47.5748Z" fill="black"></path><path d="M47.5757 22.1621V28.1813H31.5368V52.2579H24.7407V22.1621H47.5757Z" fill="black"></path><path d="M66.3329 21.6147C74.2164 21.6147 80.7407 26.8131 80.7407 36.389C80.7407 36.9362 80.7407 37.4834 80.7407 38.5778H57.0902C57.362 43.5026 61.4397 46.7857 66.3329 46.7857C70.4106 46.7857 73.4009 44.8706 74.7601 42.1346L79.9252 45.6914C77.2067 50.0689 72.5853 52.5313 66.3329 52.5313C57.362 52.5313 50.8378 45.9649 50.8378 36.9362C50.5659 28.4547 57.0902 21.6147 66.3329 21.6147ZM57.362 33.9266H73.9446C73.129 29.5491 69.8669 27.3603 65.7892 27.3603C62.2553 27.0867 58.4494 29.5491 57.362 33.9266Z" fill="black"></path><path d="M87.2637 22.1619H93.7879V26.2659C95.419 23.8035 99.2248 21.6147 103.303 21.6147C111.458 21.6147 117.71 28.7283 117.71 37.2098C117.71 45.6913 111.458 52.8049 103.303 52.8049C98.953 52.8049 95.419 50.6161 93.7879 48.1537V64.5696H87.2637V22.1619ZM102.487 27.6339C97.0501 27.6339 93.5161 31.7379 93.5161 37.2098C93.5161 42.6818 97.0501 46.7857 102.487 46.7857C107.924 46.7857 111.458 42.6818 111.458 37.2098C111.458 31.7379 107.652 27.6339 102.487 27.6339Z" fill="black"></path><path d="M131.304 7.38818H124.78V52.2582H131.304V7.38818Z" fill="black"></path><path d="M143.537 15.8694C141.09 15.8694 139.188 13.9542 139.188 11.4918C139.188 9.02944 141.09 7.11426 143.537 7.11426C145.984 7.11426 147.887 9.02944 147.887 11.4918C147.887 13.6806 145.984 15.8694 143.537 15.8694ZM140.275 22.1621H146.799V51.9843H140.275V22.1621Z" fill="black"></path><path d="M169.362 52.8049C160.391 52.8049 153.595 45.9649 153.595 37.2098C153.595 28.4547 160.391 21.6147 169.362 21.6147C175.615 21.6147 180.78 24.8979 183.226 29.8227L177.518 32.8323C176.158 29.8227 173.168 27.6339 169.362 27.6339C163.925 27.6339 160.391 31.7379 160.391 37.2098C160.391 42.6818 164.197 46.7857 169.362 46.7857C173.168 46.7857 176.158 44.597 177.518 41.5874L183.226 44.597C180.508 49.5217 175.343 52.8049 169.362 52.8049Z" fill="black"></path><path d="M201.439 21.6147C205.789 21.6147 209.323 23.8035 210.954 26.2659V22.1619H217.478V51.9841H210.954V47.8801C209.323 50.3425 205.789 52.5313 201.439 52.5313C193.284 52.5313 187.032 45.4178 187.032 36.9362C187.032 28.4547 193.284 21.6147 201.439 21.6147ZM202.799 27.6339C197.362 27.6339 193.828 31.7379 193.828 37.2098C193.828 42.6818 197.362 46.7857 202.799 46.7857C208.236 46.7857 211.77 42.6818 211.77 37.2098C211.77 31.7379 207.964 27.6339 202.799 27.6339Z" fill="black"></path><path d="M228.897 52.2578V28.1812H222.645V22.162H228.897V13.9541H235.422V22.162H246.839V27.9076H235.422V45.965H246.839V51.9842H228.897V52.2578Z" fill="black"></path><path d="M265.595 21.6147C273.479 21.6147 280.003 26.8131 280.003 36.389C280.003 36.9362 280.003 37.4834 280.003 38.5778H256.353C256.624 43.5026 260.702 46.7857 265.595 46.7857C269.673 46.7857 272.663 44.8706 274.022 42.1346L279.187 45.6914C276.469 50.0689 271.848 52.5313 265.595 52.5313C256.624 52.5313 250.1 45.9649 250.1 36.9362C250.1 28.4547 256.624 21.6147 265.595 21.6147ZM256.624 33.9266H273.207C272.391 29.5491 269.129 27.3603 265.052 27.3603C261.518 27.0867 257.712 29.5491 256.624 33.9266Z" fill="black"></path></g></g><defs><clipPath id="clip0_1636_1679339"><rect fill="white" height="65.6635" width="280"></rect></clipPath></defs></svg>