<svg xmlns:xlink="http://www.w3.org/1999/xlink" aria-label="Open Ai logo" fill="none" viewBox="0 0 300 83" xmlns="http://www.w3.org/2000/svg" class="geist-hide-on-dark" data-testid="geist-logo" width="300"  height="83" ><path d="M94.3493 39.733C94.3493 53.2458 103.027 62.6675 115.052 62.6675C127.078 62.6675 135.756 53.2458 135.756 39.733C135.756 26.2203 127.078 16.7985 115.052 16.7985C103.027 16.7985 94.3493 26.2203 94.3493 39.733ZM127.821 39.733C127.821 49.4027 122.553 55.6632 115.052 55.6632C107.552 55.6632 102.283 49.4027 102.283 39.733C102.283 30.0633 107.552 23.8028 115.052 23.8028C122.553 23.8028 127.821 30.0633 127.821 39.733Z" fill="black"></path><path d="M158.099 62.6682C167.211 62.6682 172.418 54.9821 172.418 45.7463C172.418 36.5105 167.211 28.8244 158.099 28.8244C153.884 28.8244 150.785 30.498 148.74 32.9154V29.4442H141.301V73.1437H148.74V58.5772C150.785 60.9946 153.884 62.6682 158.099 62.6682ZM148.554 44.8165C148.554 38.68 152.025 35.3328 156.612 35.3328C162.004 35.3328 164.918 39.5478 164.918 45.7463C164.918 51.9448 162.004 56.1598 156.612 56.1598C152.025 56.1598 148.554 52.7506 148.554 46.7381V44.8165Z" fill="black"></path><path d="M192.547 62.6677C199.055 62.6677 204.2 59.2586 206.494 53.5559L200.109 51.1385C199.117 54.4857 196.204 56.3453 192.547 56.3453C187.774 56.3453 184.427 52.9361 183.869 47.3574H206.68V44.878C206.68 35.9522 201.659 28.8239 192.237 28.8239C182.815 28.8239 176.741 36.2001 176.741 45.7458C176.741 55.7874 183.249 62.6677 192.547 62.6677ZM192.175 35.0844C196.886 35.0844 199.117 38.1836 199.179 41.7788H184.241C185.357 37.3778 188.332 35.0844 192.175 35.0844Z" fill="black"></path><path d="M212.262 61.9864H219.7V42.895C219.7 38.2461 223.109 35.7667 226.457 35.7667C230.548 35.7667 232.159 38.68 232.159 42.709V61.9864H239.598V40.5396C239.598 33.5352 235.507 28.8244 228.688 28.8244C224.473 28.8244 221.56 30.7459 219.7 32.9154V29.4442H212.262V61.9864Z" fill="black"></path><path d="M261.382 17.4804L244.522 61.9857H252.394L256.175 51.8201H275.39L279.234 61.9857H287.23L270.37 17.4804H261.382ZM265.721 26.2823L272.787 44.8778H258.778L265.721 26.2823Z" fill="black"></path><path d="M300 17.6096H292.065V62.1149H300V17.6096Z" fill="black"></path><path d="M76.1724 33.8262C78.0474 28.1984 77.4018 22.0335 74.4032 16.9146C69.8938 9.06312 60.8284 5.02376 51.9748 6.92463C48.0362 2.48753 42.3774 -0.0357746 36.4449 0.000383334C27.395 -0.0202784 19.3653 5.80632 16.5811 14.4171C10.7674 15.6077 5.7492 19.2468 2.81264 24.4044C-1.73037 32.2352 -0.694701 42.1063 5.3747 48.8214C3.49965 54.4491 4.14533 60.614 7.14387 65.733C11.6533 73.5844 20.7187 77.6238 29.5723 75.7229C33.5083 80.16 39.1697 82.6833 45.1022 82.6446C54.1572 82.6678 62.1895 76.8361 64.9737 68.2176C70.7874 67.0269 75.8056 63.3879 78.7422 58.2302C83.28 50.3994 82.2418 40.536 76.175 33.821L76.1724 33.8262ZM45.1074 77.2441C41.4838 77.2493 37.9739 75.9812 35.1923 73.6593C35.3188 73.5922 35.5384 73.4708 35.6804 73.383L52.1375 63.8786C52.9795 63.4008 53.496 62.5046 53.4909 61.5361V38.3356L60.4462 42.3517C60.5211 42.3878 60.5701 42.4602 60.5805 42.5428V61.7556C60.5701 70.2992 53.651 77.2261 45.1074 77.2441ZM11.8315 63.0315C10.0159 59.8961 9.36243 56.2209 9.98487 52.6541C10.1063 52.7264 10.3206 52.8582 10.473 52.946L26.9301 62.4504C27.7644 62.9385 28.7974 62.9385 29.6342 62.4504L49.7253 50.8488V58.881C49.7304 58.9637 49.6917 59.0438 49.6271 59.0954L32.9918 68.7005C25.5819 72.9672 16.1188 70.4309 11.8341 63.0315H11.8315ZM7.50029 27.1085C9.30819 23.9679 12.1621 21.566 15.561 20.3186C15.561 20.4606 15.5532 20.7112 15.5532 20.8868V39.8981C15.5481 40.864 16.0646 41.7602 16.904 42.238L36.995 53.837L30.0397 57.8531C29.97 57.8996 29.8822 57.9074 29.8047 57.8738L13.1668 48.2609C5.77244 43.9788 3.23621 34.5183 7.4977 27.1111L7.50029 27.1085ZM64.6457 40.4069L44.5547 28.8054L51.5099 24.7918C51.5797 24.7453 51.6675 24.7376 51.745 24.7712L68.3829 34.3763C75.7901 38.6558 78.329 48.1318 74.0494 55.539C72.2389 58.6744 69.3876 61.0764 65.9913 62.3264V42.7468C65.999 41.7809 65.4851 40.8873 64.6483 40.4069H64.6457ZM71.5674 29.9883C71.446 29.9134 71.2316 29.7842 71.0792 29.6964L54.6221 20.192C53.7879 19.7039 52.7548 19.7039 51.918 20.192L31.827 31.7936V23.7613C31.8218 23.6787 31.8606 23.5986 31.9251 23.547L48.5605 13.9496C55.9703 9.67522 65.4437 12.2192 69.7156 19.6316C71.5209 22.7618 72.1743 26.4267 71.5622 29.9883H71.5674ZM28.0459 44.3042L21.088 40.2881C21.0131 40.2519 20.964 40.1796 20.9537 40.097V20.8842C20.9589 12.3303 27.8987 5.39825 36.4526 5.40342C40.071 5.40342 43.5732 6.67411 46.3548 8.98822C46.2283 9.05537 46.0113 9.17676 45.8667 9.26457L29.4095 18.769C28.5676 19.2468 28.051 20.1404 28.0562 21.1089L28.0459 44.2991V44.3042ZM31.8244 36.1583L40.7735 30.9903L49.7227 36.1558V46.4892L40.7735 51.6546L31.8244 46.4892V36.1583Z" fill="black"></path></svg>